<?xml version="1.0" encoding="UTF-8"?>
<svg xmlns="http://www.w3.org/2000/svg" version="1.1" viewBox="0 0 539.12 613.95">
  <!-- Generator: Adobe Illustrator 30.2.1, SVG Export Plug-In . SVG Version: 2.1.1 Build 1)  -->
  <defs>
    <style>
      .st0 {
        isolation: isolate;
      }

      .st1 {
        fill: #fff;
        mix-blend-mode: overlay;
      }

      .st2 {
        fill: #06aabd;
      }
    </style>
  </defs>
  <g class="st0">
    <g id="_Слой_1" data-name="Слой_1">
      <g>
        <path class="st1" d="M537.62,613.95H0V0h423.51c9.93,0,17.98,8.51,17.98,19v74.11c0,10.49,8.05,19,17.98,19h60.17c9.93,0,17.98,8.51,17.98,19v482.84Z"/>
        <g>
          <path class="st2" d="M497.33,95.87c-23.04,0-41.79-18.75-41.79-41.79s18.75-41.79,41.79-41.79,41.79,18.75,41.79,41.79-18.75,41.79-41.79,41.79ZM497.33,15.29c-21.39,0-38.79,17.4-38.79,38.79s17.4,38.79,38.79,38.79,38.79-17.4,38.79-38.79-17.4-38.79-38.79-38.79Z"/>
          <polygon class="st2" points="512.09 38.48 481.42 38.48 481.42 41.56 509.01 41.56 480.33 70.24 482.51 72.42 511.19 43.74 511.19 71.33 514.27 71.33 514.27 38.48 512.09 38.48"/>
        </g>
      </g>
    </g>
  </g>
</svg>