<?xml version="1.0" encoding="UTF-8"?>
<svg id="_Слой_1" data-name="Слой_1" xmlns="http://www.w3.org/2000/svg" version="1.1" viewBox="0 0 605.9 97.43">
  <!-- Generator: Adobe Illustrator 30.2.1, SVG Export Plug-In . SVG Version: 2.1.1 Build 1)  -->
  <defs>
    <style>
      .st0 {
        fill: #fff;
      }

      .st1 {
        fill: #010101;
      }
    </style>
  </defs>
  <g>
    <path class="st0" d="M0,.15h445.53c24.84,0,45,20.16,45,45v52.13H0V.15H0Z"/>
    <circle class="st0" cx="557.19" cy="48.71" r="48.71"/>
  </g>
  <g>
    <path class="st1" d="M42.62,65.3V31.88h27.33v33.43h-5.91v-28.08h-15.51v28.08h-5.91Z"/>
    <path class="st1" d="M91.79,65.68c-3.44,0-6.36-.72-8.77-2.17-2.41-1.45-4.25-3.47-5.53-6.05-1.28-2.58-1.91-5.53-1.91-8.84s.65-6.34,1.94-8.91c1.29-2.57,3.15-4.59,5.58-6.05,2.43-1.46,5.36-2.2,8.79-2.2s6.36.73,8.77,2.17c2.41,1.45,4.26,3.46,5.55,6.03,1.29,2.57,1.94,5.52,1.94,8.87s-.64,6.26-1.92,8.84c-1.28,2.58-3.14,4.62-5.58,6.1-2.44,1.48-5.4,2.22-8.87,2.22ZM91.89,60.2c2.39,0,4.35-.55,5.86-1.65s2.62-2.54,3.33-4.3c.71-1.76,1.06-3.64,1.06-5.63,0-1.51-.2-2.96-.59-4.35-.39-1.39-1.01-2.63-1.84-3.73s-1.9-1.98-3.19-2.62c-1.29-.65-2.84-.97-4.63-.97-2.36,0-4.31.55-5.84,1.66-1.53,1.1-2.66,2.54-3.38,4.3-.73,1.77-1.09,3.67-1.09,5.72s.36,3.91,1.09,5.67c.72,1.77,1.85,3.19,3.38,4.28,1.53,1.09,3.48,1.63,5.84,1.63Z"/>
    <path class="st1" d="M110.33,74v-14.09c1.26,0,2.2-.29,2.81-.87.62-.58,1.06-1.32,1.35-2.2.28-.88.5-1.85.66-2.91.16-1.06.29-2.13.4-3.24s.2-2.19.26-3.26c.16-2.68.27-5.3.33-7.87.06-2.57.11-5.13.14-7.68h22.88v28.04h4.02v14.09h-5.91v-8.7h-21.04v8.7h-5.91ZM119.69,59.91h13.57v-22.65h-11.44l-.33,11.35c-.03.69-.07,1.5-.12,2.43-.05.93-.13,1.9-.26,2.91-.13,1.01-.3,2.03-.52,3.05-.22,1.02-.52,1.99-.9,2.91Z"/>
    <path class="st1" d="M145.08,65.3l12.81-33.43h7.04l12.77,33.43h-6.38l-2.22-6.19h-15.41l-2.27,6.19h-6.33ZM155.57,53.77h11.58l-5.77-15.93-5.82,15.93Z"/>
    <path class="st1" d="M186.07,65.3v-28.04h-10.45v-5.39h26.76v5.39h-10.45v28.04h-5.86Z"/>
    <path class="st1" d="M206.54,65.3V31.88h5.91v12.86h6.67c1.7,0,3.31.14,4.82.42,1.51.28,2.85.79,4.02,1.51s2.08,1.72,2.74,2.98c.66,1.26.99,2.88.99,4.87.03,2.08-.32,3.82-1.06,5.22-.74,1.4-1.74,2.51-3,3.33s-2.7,1.39-4.33,1.73-3.32.5-5.08.5h-11.68ZM212.45,59.91h5.77c1.01,0,1.97-.06,2.88-.19s1.73-.37,2.43-.73c.71-.36,1.26-.88,1.66-1.56.39-.68.59-1.57.59-2.67s-.19-1.92-.57-2.55c-.38-.63-.9-1.1-1.56-1.42-.66-.32-1.42-.53-2.27-.64-.85-.11-1.75-.17-2.7-.17h-6.24v9.93Z"/>
    <path class="st1" d="M262.24,65.68c-1.77,0-3.44-.19-5.04-.57-1.59-.38-3.03-.98-4.3-1.8s-2.3-1.87-3.07-3.17c-.77-1.29-1.21-2.85-1.3-4.68h5.72c.13.88.43,1.62.92,2.22.49.6,1.1,1.09,1.84,1.47s1.57.65,2.48.8c.91.16,1.83.24,2.74.24.76,0,1.55-.05,2.39-.17s1.62-.34,2.36-.69c.74-.35,1.34-.84,1.8-1.49.46-.65.69-1.49.69-2.53,0-.95-.18-1.72-.54-2.32-.36-.6-.86-1.06-1.49-1.37-.63-.31-1.36-.54-2.2-.66-.84-.12-1.74-.19-2.72-.19h-4.54v-4.96h3.21c.95,0,1.84-.09,2.7-.26.85-.17,1.6-.43,2.25-.78.65-.35,1.16-.81,1.54-1.39s.57-1.28.57-2.1c0-1.23-.32-2.15-.97-2.77-.65-.61-1.46-1.04-2.43-1.28-.98-.24-1.96-.35-2.93-.35-1.2,0-2.3.16-3.31.47-1.01.32-1.83.8-2.46,1.47-.63.66-.98,1.5-1.04,2.51h-5.72c.03-1.58.33-2.92.9-4.04.57-1.12,1.31-2.05,2.22-2.79.91-.74,1.94-1.34,3.07-1.8,1.13-.46,2.3-.78,3.5-.97,1.2-.19,2.32-.28,3.36-.28,1.45,0,2.86.16,4.23.47,1.37.32,2.62.83,3.74,1.54,1.12.71,2.01,1.65,2.67,2.81.66,1.17.99,2.57.99,4.21,0,.82-.12,1.64-.35,2.46-.24.82-.65,1.61-1.23,2.36-.58.76-1.46,1.45-2.62,2.08,1.86.54,3.25,1.54,4.18,3.02.93,1.48,1.39,3.18,1.39,5.11-.03,1.8-.42,3.34-1.16,4.63-.74,1.29-1.73,2.34-2.96,3.14s-2.62,1.4-4.18,1.8-3.19.59-4.89.59Z"/>
    <path class="st1" d="M276.84,65.3l12.81-33.43h7.04l12.77,33.43h-6.38l-2.22-6.19h-15.41l-2.27,6.19h-6.33ZM287.34,53.77h11.58l-5.77-15.93-5.82,15.93Z"/>
    <path class="st1" d="M312.02,65.3l7.99-12.77c-2.27-.66-4.07-1.81-5.39-3.45-1.32-1.64-1.99-3.8-1.99-6.48,0-2.02.32-3.71.97-5.08.65-1.37,1.55-2.47,2.72-3.31,1.17-.83,2.55-1.43,4.14-1.8,1.59-.36,3.3-.54,5.13-.54h12.86v33.43h-5.91v-11.77h-6.71l-6.95,11.77h-6.86ZM326.06,48.28h6.48v-11.02h-7.33c-1.42,0-2.63.19-3.64.57s-1.77.96-2.29,1.75c-.52.79-.78,1.81-.78,3.07,0,1.51.36,2.67,1.09,3.48.72.8,1.66,1.36,2.81,1.68,1.15.32,2.37.47,3.66.47Z"/>
    <path class="st1" d="M345.87,65.3V31.88h13.71c1.54,0,2.97.13,4.28.4,1.31.27,2.44.73,3.4,1.4.96.66,1.71,1.54,2.25,2.65.54,1.1.8,2.47.8,4.11,0,1.51-.35,2.89-1.04,4.14-.69,1.25-1.72,2.18-3.07,2.81,1.83.47,3.23,1.39,4.21,2.77.98,1.37,1.46,3.14,1.46,5.32,0,1.92-.35,3.52-1.06,4.8s-1.69,2.29-2.93,3.03c-1.25.74-2.67,1.26-4.28,1.56-1.61.3-3.31.45-5.11.45h-12.62ZM351.78,45.87h6.24c.98,0,1.86-.09,2.65-.28s1.47-.47,2.03-.85c.57-.38,1.01-.86,1.32-1.44.31-.58.47-1.28.47-2.1,0-1.1-.25-1.93-.73-2.48-.49-.55-1.16-.93-2.01-1.13-.85-.21-1.8-.31-2.84-.31h-7.14v8.61ZM351.78,59.91h7.04c.88,0,1.75-.06,2.6-.19.85-.13,1.62-.35,2.32-.66.69-.31,1.24-.78,1.63-1.39s.59-1.41.59-2.39c0-.88-.16-1.61-.47-2.17s-.75-1.02-1.3-1.35c-.55-.33-1.21-.57-1.96-.71-.76-.14-1.54-.21-2.36-.21h-8.08v9.08Z"/>
    <path class="st1" d="M377.55,65.3V31.88h5.91v14.37h4.82l9.41-14.37h6.71l-11.16,16.36,11.21,17.07h-6.9l-8.98-13.66h-5.11v13.66h-5.91Z"/>
    <path class="st1" d="M410.32,65.35v-5.63c1.39,0,2.54-.09,3.47-.26.93-.17,1.75-.53,2.46-1.06.71-.54,1.38-1.35,2.01-2.46l-12.86-24.06h6.9l9.12,18.3,7.33-18.3h6.34l-7.28,16.97c-.47,1.13-1.01,2.39-1.61,3.76s-1.25,2.73-1.96,4.09-1.47,2.61-2.27,3.76c-.8,1.15-1.66,2.06-2.58,2.72-1.13.82-2.43,1.39-3.9,1.7-1.47.32-3.19.47-5.18.47Z"/>
  </g>
  <polygon class="st1" points="575.04 29.86 537.96 29.86 537.96 33.58 571.32 33.58 536.64 68.26 539.27 70.89 573.95 36.21 573.95 69.57 577.67 69.57 577.67 29.86 575.04 29.86"/>
</svg>