<?xml version="1.0" encoding="UTF-8"?>
<svg id="_Слой_1" data-name="Слой_1" xmlns="http://www.w3.org/2000/svg" version="1.1" viewBox="0 0 1642.97 348.55">
  <!-- Generator: Adobe Illustrator 30.2.1, SVG Export Plug-In . SVG Version: 2.1.1 Build 1)  -->
  <defs>
    <style>
      .st0 {
        fill: #fff;
      }
    </style>
  </defs>
  <g>
    <path class="st0" d="M762.62,165.14V37.64h88.06v23.95h-62.31v103.55h-25.75Z"/>
    <path class="st0" d="M918.04,166.58c-13.09,0-24.34-2.76-33.77-8.28-9.43-5.52-16.63-13.17-21.61-22.96-4.98-9.78-7.47-21.04-7.47-33.77s2.55-24.37,7.65-34.22c5.1-9.84,12.4-17.5,21.88-22.96,9.48-5.46,20.77-8.19,33.86-8.19s24.13,2.7,33.5,8.1c9.36,5.4,16.6,12.97,21.7,22.69,5.1,9.72,7.65,21.07,7.65,34.04s-2.55,24.04-7.65,33.95c-5.1,9.91-12.37,17.65-21.79,23.23-9.43,5.58-20.74,8.37-33.95,8.37ZM918.4,142.45c8.64,0,15.67-1.98,21.07-5.94s9.33-9.06,11.8-15.31c2.46-6.24,3.69-12.79,3.69-19.63,0-5.04-.69-10.02-2.07-14.95-1.38-4.92-3.51-9.37-6.39-13.33-2.88-3.96-6.66-7.11-11.35-9.45-4.68-2.34-10.33-3.51-16.93-3.51-8.53,0-15.49,1.95-20.89,5.85-5.4,3.9-9.4,8.98-11.98,15.22-2.58,6.24-3.87,12.91-3.87,19.99s1.29,13.75,3.87,19.99c2.58,6.24,6.6,11.32,12.07,15.22,5.46,3.9,12.45,5.85,20.98,5.85Z"/>
    <path class="st0" d="M1001.42,165.14V37.64h49.7c9.72,0,18.22,1.47,25.48,4.41,7.26,2.94,12.88,7.63,16.84,14.05,3.96,6.42,5.94,14.98,5.94,25.66,0,9.97-2.19,18.31-6.57,25.03-4.38,6.73-10.35,11.74-17.92,15.04-7.56,3.3-16.15,4.95-25.75,4.95h-21.97v38.36h-25.75ZM1027.17,103.73h21.61c7.68,0,13.78-1.83,18.28-5.49,4.5-3.66,6.75-9.21,6.75-16.66,0-6.72-1.89-11.73-5.67-15.04-3.78-3.3-9.81-4.95-18.1-4.95h-22.87v42.14Z"/>
    <path class="st0" d="M1118.47,165.14V37.64h25.75v47.36h25.03c6.72,0,12.99.6,18.82,1.8,5.82,1.2,10.92,3.21,15.31,6.03,4.38,2.82,7.83,6.69,10.36,11.62,2.52,4.92,3.78,11.11,3.78,18.55,0,8.28-1.44,15.13-4.32,20.53-2.88,5.4-6.81,9.7-11.79,12.88-4.98,3.18-10.63,5.43-16.93,6.75-6.3,1.32-12.88,1.98-19.72,1.98h-46.28ZM1144.22,141.37h21.25c3.72,0,7.14-.21,10.26-.63,3.12-.42,5.88-1.23,8.28-2.43,2.4-1.2,4.29-2.97,5.67-5.31,1.38-2.34,2.07-5.37,2.07-9.09,0-3.48-.6-6.27-1.8-8.37-1.2-2.1-2.94-3.72-5.22-4.86-2.28-1.14-4.83-1.89-7.65-2.25-2.82-.36-5.91-.54-9.27-.54h-23.59v33.5Z"/>
    <path class="st0" d="M1237.86,165.14V37.64h25.75v52.95h18.19l33.14-52.95h29.53l-41.06,61.95,40.88,65.55h-30.07l-31.51-50.78h-19.09v50.78h-25.75Z"/>
    <path class="st0" d="M1359.06,165.14V37.64h25.75v83.92l61.05-83.92h21.97v127.5h-25.75v-82.84l-61.05,82.84h-21.97Z"/>
    <path class="st0" d="M1494.85,165.14V37.64h25.75v83.92l61.05-83.92h21.97v127.5h-25.75v-82.84l-61.05,82.84h-21.97ZM1549.77,30.43c-6.96,0-13.06-1.14-18.28-3.42-5.22-2.28-9.27-5.64-12.16-10.08C1516.46,12.49,1514.84,6.84,1514.47,0h21.43c.12,3.96,1.5,6.96,4.14,9,2.64,2.04,5.94,3.06,9.91,3.06s7.32-1.02,9.72-3.06C1562.08,6.96,1563.4,3.96,1563.64,0h21.25c-.12,6.84-1.68,12.49-4.68,16.93-3,4.44-7.09,7.81-12.25,10.08-5.16,2.28-11.23,3.42-18.19,3.42Z"/>
  </g>
  <g>
    <path class="st0" d="M0,347.11l49.7-127.5h28.81l49.16,127.5h-27.73l-7.92-21.79h-56.37l-7.92,21.79H0ZM43.94,302.09h39.98l-19.81-55.11-20.17,55.11Z"/>
    <path class="st0" d="M141.37,347.11v-127.5h25.75v52.95h18.19l33.14-52.95h29.53l-41.06,61.95,40.88,65.55h-30.07l-31.51-50.78h-19.09v50.78h-25.75Z"/>
    <path class="st0" d="M311.55,348.55c-13.09,0-24.22-2.67-33.41-8.01-9.18-5.34-16.15-12.88-20.89-22.6-4.74-9.72-7.11-21.07-7.11-34.04s2.43-24.73,7.29-34.58c4.86-9.84,11.86-17.5,20.98-22.96,9.12-5.46,20.11-8.19,32.96-8.19,9.72,0,18.43,1.65,26.11,4.95,7.68,3.3,13.89,8.17,18.64,14.59,4.74,6.42,7.71,14.32,8.92,23.68h-24.85c-1.56-5.88-4.71-10.54-9.45-13.96-4.74-3.42-11.02-5.13-18.82-5.13-8.64,0-15.52,1.95-20.62,5.85-5.1,3.9-8.8,8.95-11.08,15.13-2.28,6.18-3.42,12.7-3.42,19.54s1.2,13.81,3.6,20.17c2.4,6.37,6.21,11.53,11.44,15.49,5.22,3.96,12.09,5.94,20.62,5.94,5.04,0,9.54-.75,13.51-2.25,3.96-1.5,7.23-3.69,9.81-6.57,2.58-2.88,4.35-6.3,5.31-10.26h25.75c-1.08,9.25-4.2,17.11-9.37,23.59-5.16,6.48-11.71,11.38-19.63,14.68-7.92,3.3-16.69,4.95-26.29,4.95Z"/>
    <path class="st0" d="M386.82,347.11v-127.5h91.84v23.95h-66.09v28.81h56.73v23.05h-56.73v27.91h66.09v23.77h-91.84Z"/>
    <path class="st0" d="M486.95,347.65v-24.67c4.08,0,7.35-.78,9.81-2.34,2.46-1.56,4.32-3.78,5.58-6.66,1.26-2.88,2.19-6.24,2.79-10.08.6-3.36,1.02-6.96,1.26-10.81.24-3.84.39-7.53.45-11.08.06-3.54.09-6.69.09-9.45l.54-52.95h90.4v127.5h-25.93v-103.55h-40.16l-.36,30.43c-.12,9.25-.33,17.92-.63,26.02-.3,8.1-1.26,15.37-2.88,21.79-1.62,6.42-4.41,11.74-8.37,15.94-3.72,3.72-8.08,6.3-13.06,7.74-4.98,1.44-11.5,2.16-19.54,2.16Z"/>
    <path class="st0" d="M624.89,347.11v-127.5h91.84v23.95h-66.09v28.81h56.73v23.05h-56.73v27.91h66.09v23.77h-91.84Z"/>
    <path class="st0" d="M736.72,347.11v-127.5h49.7c9.72,0,18.22,1.47,25.48,4.41,7.26,2.94,12.88,7.63,16.84,14.05,3.96,6.42,5.94,14.98,5.94,25.66,0,9.97-2.19,18.31-6.57,25.03-4.38,6.73-10.35,11.74-17.92,15.04-7.56,3.3-16.15,4.95-25.75,4.95h-21.97v38.36h-25.75ZM762.48,285.7h21.61c7.68,0,13.78-1.83,18.28-5.49,4.5-3.66,6.75-9.21,6.75-16.66,0-6.72-1.89-11.73-5.67-15.04-3.78-3.3-9.81-4.95-18.1-4.95h-22.87v42.14Z"/>
    <path class="st0" d="M829.83,347.11l49.7-127.5h28.81l49.16,127.5h-27.73l-7.92-21.79h-56.37l-7.92,21.79h-27.73ZM873.77,302.09h39.98l-19.81-55.11-20.17,55.11Z"/>
    <path class="st0" d="M987.04,347.11v-103.55h-38.9v-23.95h103.91v23.95h-39.08v103.55h-25.93Z"/>
    <path class="st0" d="M1119.41,348.55c-13.09,0-24.34-2.76-33.77-8.28-9.43-5.52-16.63-13.17-21.61-22.96-4.98-9.78-7.47-21.04-7.47-33.77s2.55-24.37,7.65-34.22c5.1-9.84,12.4-17.5,21.88-22.96,9.48-5.46,20.77-8.19,33.86-8.19s24.13,2.7,33.5,8.1c9.36,5.4,16.6,12.97,21.7,22.69,5.1,9.72,7.65,21.07,7.65,34.04s-2.55,24.04-7.65,33.95c-5.1,9.91-12.37,17.65-21.79,23.23-9.43,5.58-20.74,8.37-33.95,8.37ZM1119.77,324.42c8.64,0,15.67-1.98,21.07-5.94s9.33-9.06,11.8-15.31c2.46-6.24,3.69-12.79,3.69-19.63,0-5.04-.69-10.02-2.07-14.95-1.38-4.92-3.51-9.37-6.39-13.33-2.88-3.96-6.66-7.11-11.35-9.45-4.68-2.34-10.33-3.51-16.93-3.51-8.53,0-15.49,1.95-20.89,5.85-5.4,3.9-9.4,8.98-11.98,15.22-2.58,6.24-3.87,12.91-3.87,19.99s1.29,13.75,3.87,19.99c2.58,6.24,6.6,11.32,12.07,15.22,5.46,3.9,12.45,5.85,20.98,5.85Z"/>
    <path class="st0" d="M1202.79,347.11v-127.5h49.7c9.72,0,18.22,1.47,25.48,4.41,7.26,2.94,12.88,7.63,16.84,14.05,3.96,6.42,5.94,14.98,5.94,25.66,0,9.97-2.19,18.31-6.57,25.03-4.38,6.73-10.35,11.74-17.92,15.04-7.56,3.3-16.15,4.95-25.75,4.95h-21.97v38.36h-25.75ZM1228.54,285.7h21.61c7.68,0,13.78-1.83,18.28-5.49,4.5-3.66,6.75-9.21,6.75-16.66,0-6.72-1.89-11.73-5.67-15.04-3.78-3.3-9.81-4.95-18.1-4.95h-22.87v42.14Z"/>
  </g>
  <rect class="st0" x="1622.16" y="143.67" width="20.81" height="20.81" transform="translate(3265.13 308.16) rotate(-180)"/>
</svg>