<svg fill="none" height="44" viewBox="0 0 297 44" width="297" xmlns="http://www.w3.org/2000/svg"><g fill="#fff"><path d="m71.6925 15.07h.165c1.1275-3.2175 3.8225-4.565 5.94-4.565.6325 0 .9625.0275 1.4575.1375v6.435c-.5225-.11-1.0725-.1925-1.8425-.1925-2.5025 0-4.2075 1.32-4.675 3.465-.11.4125-.1375.9625-.1375 1.5125v11.1375h-6.8475v-14.74c0-3.245-.0825-5.3625-.1925-7.26h5.885z"/><path d="m35.4475 23.4575h-11.7425v-4.565h11.7425z"/><g clip-rule="evenodd" fill-rule="evenodd"><path d="m0 22.275c0-5.5825 3.4925-11.77 11.0825-11.77 7.1225 0 9.8175 5.555 9.8175 11 0 1.1825-.1375 2.2-.2475 2.695h-14.135c.1925 2.8325 2.9975 4.18 6.1875 4.18 2.31 0 4.2075-.3025 6.05-.935l.935 4.62c-2.2825.935-5.0325 1.4025-7.975 1.4025-7.4525 0-11.715-4.345-11.715-11.1925zm10.6975-7.205c-2.8875 0-4.0425 2.64-4.235 4.455h8.0575c.0275-1.65-.715-4.455-3.8225-4.455z"/><path d="m45.4575 14.08c1.6225-2.31 4.125-3.575 7.315-3.575v-.0275c4.8125 0 9.13 4.2075 9.13 11.22 0 8.03-5.0875 11.7975-9.9825 11.7975-2.6125 0-4.73-1.045-5.6925-2.5025h-.0825v10.9175h-6.8475v-23.5125c0-2.6413-.0921-4.9145-.1709-6.8616-.0073-.1814-.0146-.36-.0216-.5359h5.94l.33 3.08zm.7975 10.945c.44 1.8425 2.0075 3.245 3.9875 3.245l.0275-.0275c2.9425 0 4.7025-2.475 4.7025-6.215 0-3.4925-1.54-6.16-4.5925-6.16-1.9525 0-3.685 1.4575-4.0975 3.465-.11.385-.165.7975-.165 1.21v3.0525c0 .5225.0275.99.1375 1.43z"/><path d="m81.07 22.165c0-7.095 4.675-11.66 11.7425-11.66 6.7375 0 11.1925 4.62 11.1925 11.275 0 8.03-5.6925 11.715-11.5775 11.715-6.4075 0-11.3575-4.235-11.3575-11.33zm7.04-.165c0 3.74 1.5675 6.6 4.4825 6.6h.0275c2.6675 0 4.345-2.695 4.345-6.655 0-3.245-1.0725-6.5725-4.345-6.5725s-4.51 3.355-4.51 6.6275z"/></g><path d="m129.442 11.605c1.21-.715 2.53-1.1 4.18-1.1v.055c4.208 0 7.398 2.97 7.398 9.5425v12.9525h-6.655v-11.9625c0-3.19-1.045-5.0325-3.245-5.0325-1.568 0-2.668 1.0725-3.135 2.3925-.165.495-.248 1.1825-.248 1.7325v12.87h-6.655v-12.3475c0-2.7775-.99-4.6475-3.162-4.6475-1.733 0-2.778 1.3475-3.19 2.4475-.193.5225-.248 1.155-.248 1.7325v12.815h-6.655v-14.9875c0-2.4879-.09-4.6156-.168-6.4647-.008-.1948-.016-.3865-.024-.5753h5.775l.302 2.97h.138c.935-1.375 2.887-3.465 6.627-3.465 2.86 0 5.088 1.4575 6.023 3.7675h.082c.825-1.1825 1.788-2.0625 2.86-2.695z"/><path clip-rule="evenodd" d="m144.787 22.165c0-7.095 4.675-11.66 11.743-11.66 6.71 0 11.192 4.62 11.192 11.275 0 8.03-5.692 11.715-11.577 11.715-6.408 0-11.358-4.235-11.358-11.33zm7.04-.165c0 3.74 1.595 6.6 4.51 6.6 2.668 0 4.345-2.695 4.345-6.655 0-3.245-1.072-6.5725-4.345-6.5725-3.272 0-4.51 3.355-4.51 6.6275z" fill-rule="evenodd"/><path d="m212.548 15.07h.192c1.128-3.2175 3.823-4.565 5.94-4.565.633 0 .963.0275 1.458.1375v6.435c-.523-.11-1.073-.1925-1.843-.1925-2.502 0-4.207 1.32-4.675 3.465-.11.4125-.137.9625-.137 1.5125v11.1375h-6.848v-14.74c0-3.245-.082-5.3625-.192-7.26h5.857z"/><path d="m262.543 11h6.82v14.96c0 2.7784.101 5.0476.183 6.8566l.009.2109h-5.912l-.303-3.1075h-.137c-.853 1.3475-2.915 3.6025-6.848 3.6025-4.482 0-7.727-2.805-7.727-9.57v-12.9525h6.847v11.825c0 3.2175 1.018 5.1425 3.438 5.1425 1.842 0 2.942-1.265 3.382-2.3925.165-.4125.248-.9075.248-1.4575z"/><path clip-rule="evenodd" d="m221.925 22.165c0-7.095 4.675-11.66 11.743-11.66 6.71 0 11.192 4.62 11.192 11.275 0 8.03-5.692 11.715-11.577 11.715-6.408 0-11.358-4.235-11.358-11.33zm7.013-.165c0 3.74 1.595 6.6 4.51 6.6 2.667 0 4.345-2.695 4.345-6.655 0-3.245-1.073-6.5725-4.345-6.5725-3.273 0-4.51 3.355-4.51 6.6275z" fill-rule="evenodd"/><path clip-rule="evenodd" d="m280.555 14.08c1.623-2.31 4.125-3.575 7.315-3.575v-.0275c4.813 0 9.13 4.2075 9.13 11.22 0 8.03-5.087 11.7975-9.982 11.7975-2.613 0-4.73-1.045-5.693-2.5025h-.082v10.9175h-6.82v-23.5125c0-2.6412-.092-4.9143-.171-6.8614-.008-.1815-.015-.3602-.022-.5361h5.94l.303 3.08zm.798 10.945c.44 1.8425 2.007 3.245 3.987 3.245l.028-.0275c2.942 0 4.702-2.475 4.702-6.215 0-3.4925-1.54-6.16-4.592-6.16-1.953 0-3.685 1.4575-4.098 3.465-.11.385-.165.7975-.165 1.21v3.0525c0 .5225.028.99.138 1.43z" fill-rule="evenodd"/><path clip-rule="evenodd" d="m195.58 13.64h.083v.0275l.22-2.64h5.94c-.11 1.43-.193 3.3-.193 6.5725v12.2375c0 4.235-.825 7.7-3.327 9.9-2.42 2.09-5.665 2.695-8.91 2.695-2.888 0-5.913-.5775-7.893-1.6775l1.348-5.1975c1.402.7975 3.795 1.65 6.38 1.65 3.217 0 5.692-1.7325 5.692-5.8025v-1.4025h-.082c-1.293 1.7875-3.41 2.8325-5.94 2.8325-5.418 0-9.295-4.4275-9.295-10.725 0-7.1225 4.565-11.605 9.955-11.605 3.025 0 4.895 1.32 6.022 3.135zm-.962 11.385c.137-.5225.192-1.2375.192-1.815h.028v-3.245c0-.44-.028-.88-.138-1.265-.495-1.815-1.787-3.025-3.685-3.025-2.502 0-4.482 2.2825-4.482 6.27 0 3.2725 1.622 5.83 4.455 5.83 1.76 0 3.19-1.155 3.63-2.75z" fill-rule="evenodd"/></g></svg>