<?xml version="1.0" encoding="UTF-8"?> <svg xmlns="http://www.w3.org/2000/svg" width="204" height="39" viewBox="0 0 204 39" fill="none"><path fill-rule="evenodd" clip-rule="evenodd" d="M33.134 4.05041C33.3649 4.05308 33.5924 4.10719 33.7987 4.21073C36.5689 5.60074 39.1069 7.54084 41.2878 9.81201C44.3557 13.0069 46.6719 16.8199 47.8892 20.588C48.0484 21.0807 47.9383 21.6191 47.6023 22.013C45.9602 23.9377 43.7567 26.0018 40.832 28.1405C35.0408 32.3756 28.504 34.0619 22.6546 34.2331C22.4264 34.2398 22.2003 34.1952 21.9914 34.1032C20.0981 33.2697 18.1544 32.2556 16.1788 31.0442C14.1366 29.792 12.448 28.5275 11.0574 27.2795C9.81054 26.1605 11.1611 24.5734 12.7251 25.1742C18.0756 27.2297 25.0708 28.6183 33.5321 28.4848C34.2454 28.4735 34.8574 27.9796 35.0328 27.2882L37.9039 15.9704C38.2064 14.7779 37.1035 13.6912 35.902 13.9556C32.8692 14.623 29.374 15.1458 25.8651 15.4826C25.8312 15.4859 25.7974 15.4747 25.7721 15.4518C25.7223 15.4068 25.6455 15.4107 25.6005 15.4604L25.5897 15.4723C25.5666 15.4979 25.5347 15.5138 25.5004 15.517C15.9847 16.3953 6.4828 15.896 5.94003 13.1956C5.89609 12.977 5.95547 12.7538 6.06704 12.5607C6.65585 11.5418 7.39334 10.5304 8.30049 9.53878C8.3795 9.45242 8.46837 9.37569 8.56568 9.31063C9.76184 8.51094 11.2584 7.76762 12.8378 7.10241C19.1239 5.18829 26.712 4.10437 32.1722 4.04968C32.4944 4.04646 32.8151 4.04671 33.134 4.05041ZM50.8941 16.9728C51.1425 16.4213 51.3425 15.8936 51.5004 15.3923C51.576 14.9958 51.6261 14.6024 51.6486 14.2133C51.8299 11.0801 49.8561 8.53885 46.2728 6.74246C45.4773 6.34365 44.6101 5.9865 43.6823 5.67276C42.0856 5.13283 41.1187 7.3417 42.2943 8.54955C42.344 8.60055 42.3934 8.65171 42.4427 8.70302C44.7763 11.1332 46.7076 13.9149 48.0884 16.7944C48.661 17.9884 50.3501 18.1802 50.8941 16.9728ZM14.939 33.5624C15.6452 33.7124 15.9573 32.7865 15.3418 32.4092C8.77439 28.3821 5.55352 24.0918 4.21743 20.4406C4.19764 20.3865 4.16325 20.338 4.11937 20.3007C3.91649 20.1282 3.60028 20.25 3.57788 20.5153C3.35128 23.1999 3.71943 25.8027 6.35892 29.34C7.64565 31.0644 10.7986 32.6831 14.939 33.5624ZM47.5324 25.4611C47.987 24.9554 48.8272 25.2062 48.8439 25.8859C48.9029 28.2932 48.3866 30.5132 47.2224 32.3652C45.4516 35.1822 41.4582 37.144 35.9255 37.2338C34.5083 37.2567 34.3161 35.3505 35.5977 34.7451C36.4506 34.3422 37.2444 33.9161 37.9657 33.4736C40.8193 31.7229 44.5017 28.8322 47.5324 25.4611ZM26.917 37.5783C26.8299 37.5539 26.7381 37.5495 26.6492 37.5661C22.282 38.3732 17.544 38.4874 13.2985 37.4104C7.94277 36.0517 4.35791 32.5856 2.75943 28.1106C1.81644 25.4706 1.5723 22.5044 2.03724 19.44C2.13219 18.8142 1.87085 18.1936 1.4161 17.7533C0.526982 16.8924 -0.0256407 15.8182 0.0645261 14.5056C0.209409 12.3966 1.8032 10.6459 3.94966 9.23252C5.24448 8.37992 6.80729 7.6048 8.53886 6.90905C8.7131 6.83904 8.87417 6.74007 9.01606 6.61707C10.458 5.36713 12.1694 4.17407 14.1797 3.05783C20.9192 -0.684517 27.7116 -0.308059 33.5507 2.32423C33.7507 2.41439 33.9664 2.46561 34.1857 2.47318C39.0605 2.64161 43.5778 3.60036 46.9904 5.31112C50.8724 7.25723 53.4802 10.2768 53.2471 14.3058C53.1014 16.8224 51.9957 19.3763 50.4103 21.7762C50.1656 22.1466 50.0747 22.598 50.1528 23.035C50.8089 26.7065 50.4146 30.2956 48.5779 33.2173C46.409 36.6676 41.7799 38.7402 35.9514 38.8347C33.2013 38.8793 30.1559 38.4867 26.917 37.5783ZM15.1028 4.8083C14.8789 4.86551 14.755 4.56979 14.9569 4.45763C17.3233 3.14366 19.7022 2.37606 22.0431 2.06612C23.3795 1.88919 23.3613 3.16767 22.0303 3.38119C19.714 3.75278 17.3615 4.23099 15.1028 4.8083ZM75.6651 17.8134C76.3946 18.2545 77.2777 18.4751 78.3144 18.4751C79.3462 18.4751 80.2269 18.2545 80.9564 17.8134C81.6907 17.3676 82.2499 16.7482 82.6338 15.9552C83.0177 15.1621 83.2097 14.2424 83.2097 13.1959C83.2097 12.1495 83.0177 11.2297 82.6338 10.4367C82.2499 9.64365 81.6907 9.02657 80.9564 8.58547C80.2269 8.13967 79.3462 7.91678 78.3144 7.91678C77.2777 7.91678 76.3946 8.13967 75.6651 8.58547C74.9356 9.02657 74.3765 9.64365 73.9877 10.4367C73.6038 11.2297 73.4118 12.1495 73.4118 13.1959C73.4118 14.2424 73.6038 15.1621 73.9877 15.9552C74.3765 16.7482 74.9356 17.3676 75.6651 17.8134ZM80.1429 16.6028C79.6582 16.9265 79.0487 17.0837 78.3144 17.0744C77.5801 17.0697 76.9657 16.9054 76.4714 16.5816C75.9819 16.2578 75.6147 15.8074 75.3699 15.2302C75.1252 14.6483 75.0052 13.9702 75.01 13.1959C75.0148 12.4217 75.1396 11.7412 75.3843 11.1547C75.6291 10.5681 75.9939 10.1129 76.4786 9.78912C76.9681 9.46533 77.5801 9.30813 78.3144 9.31751C79.0487 9.3222 79.6582 9.48644 80.1429 9.81023C80.6325 10.134 80.9996 10.5869 81.2444 11.1687C81.4891 11.7459 81.6115 12.4217 81.6115 13.1959C81.6115 13.9702 81.4891 14.6506 81.2444 15.2372C80.9996 15.8191 80.6325 16.2743 80.1429 16.6028ZM66.9759 16.8491V18.2639H68.4733V16.8491C69.0061 16.9383 69.5148 16.9172 69.9995 16.7858C70.4891 16.6544 70.9234 16.4197 71.3026 16.0819C71.6865 15.744 71.9889 15.3076 72.2097 14.7726C72.4352 14.2377 72.548 13.6136 72.548 12.9003C72.548 12.1823 72.4352 11.5559 72.2097 11.0209C71.9889 10.4813 71.6865 10.0402 71.3026 9.69761C70.9234 9.35505 70.4891 9.11573 69.9995 8.97965C69.5148 8.83887 69.0061 8.81306 68.4733 8.90222V8.12794H66.9759V8.90222C66.4432 8.81306 65.9321 8.83887 65.4425 8.97965C64.9578 9.11573 64.5234 9.35505 64.1395 9.69761C63.7603 10.0402 63.4604 10.4813 63.2396 11.0209C63.0188 11.5559 62.9085 12.1823 62.9085 12.9003C62.9085 13.6136 63.0188 14.2377 63.2396 14.7726C63.4604 15.3076 63.7603 15.744 64.1395 16.0819C64.5234 16.4197 64.9578 16.6544 65.4425 16.7858C65.9321 16.9172 66.4432 16.9383 66.9759 16.8491ZM66.9759 10.2466V15.4836C66.544 15.5446 66.1672 15.5188 65.8457 15.4061C65.5289 15.2935 65.2674 15.1152 65.061 14.8712C64.8546 14.6225 64.701 14.3292 64.6002 13.9913C64.4994 13.6488 64.4491 13.2851 64.4491 12.9003C64.4491 12.5108 64.4994 12.1448 64.6002 11.8022C64.701 11.455 64.8546 11.1547 65.061 10.9013C65.2674 10.6432 65.5289 10.4531 65.8457 10.3311C66.1672 10.2091 66.544 10.1809 66.9759 10.2466ZM69.5964 15.4061C69.2796 15.5188 68.9053 15.5446 68.4733 15.4836V10.2466C68.9053 10.1809 69.2796 10.2138 69.5964 10.3452C69.9132 10.4719 70.1747 10.669 70.3811 10.9365C70.5923 11.1992 70.7482 11.5043 70.849 11.8515C70.9546 12.1988 71.0074 12.5601 71.0074 12.9355C71.0074 13.3109 70.9546 13.6675 70.849 14.0054C70.7482 14.3386 70.5923 14.6272 70.3811 14.8712C70.1747 15.1152 69.9132 15.2935 69.5964 15.4061ZM84.6457 18.2639V8.12794H86.1503V12.4991H91.3337V8.12794H92.8455V18.2639H91.3337V13.8857H86.1503V18.2639H84.6457ZM94.3423 16.8773V19.9533H95.8469V18.2639H102.535V19.9533H104.047V16.8773H103.276V8.12794L96.6388 8.1209C96.5956 8.83418 96.5548 9.49348 96.5164 10.0988C96.4828 10.7042 96.4444 11.2907 96.4012 11.8585C96.3628 12.4217 96.3149 12.9988 96.2573 13.5901C96.2189 14.0265 96.1613 14.4418 96.0845 14.836C96.0125 15.2302 95.9069 15.5821 95.7677 15.8918C95.6333 16.1968 95.451 16.4385 95.2206 16.6168C94.9902 16.7905 94.6975 16.8773 94.3423 16.8773ZM101.772 16.8773H96.8116C97.0228 16.652 97.1835 16.408 97.2939 16.1452C97.4091 15.8824 97.4955 15.5727 97.5531 15.2161C97.6107 14.8548 97.6659 14.416 97.7187 13.8998C97.7715 13.3602 97.8147 12.8557 97.8483 12.3865C97.8866 11.9125 97.9178 11.4433 97.9418 10.9787C97.9658 10.5141 97.9946 10.0237 98.0282 9.50756L101.772 9.5146V16.8773ZM116.663 18.2639H115.137V10.7253L110.033 18.2639H108.507V8.12794H110.033V15.6595L115.137 8.12794H116.663V18.2639ZM118.673 8.12794V18.2639H120.091V11.3236L123.446 18.2639H124.129L127.477 11.3236V18.2569H128.902V8.12794H127.527L123.791 15.751L120.033 8.12794H118.673ZM130.919 18.2639V8.12794H137.543V9.5146H132.424V12.3583H136.679V13.745H132.424V16.8773H137.543V18.2639H130.919ZM139.271 8.12794V18.2639H140.776V13.8857H145.959V18.2639H147.471V8.12794H145.959V12.4991H140.776V8.12794H139.271ZM157.65 18.2639H156.124V10.7253L151.02 18.2639H149.494V8.12794H151.02V15.6595L156.124 8.12794H157.65V18.2639ZM63.4844 21.7363V31.8723H67.9478C68.6053 31.8723 69.1644 31.7503 69.6252 31.5063C70.0907 31.2575 70.4435 30.9126 70.6835 30.4715C70.9282 30.0304 71.0506 29.5119 71.0506 28.9159C71.0506 28.3012 70.873 27.7639 70.5179 27.304C70.252 26.9563 69.9002 26.6941 69.4623 26.5172C69.7292 26.3646 69.9539 26.1577 70.1363 25.8963C70.4195 25.4974 70.5611 25.0188 70.5611 24.4603C70.5611 24.0005 70.4483 23.5641 70.2227 23.1511C69.9971 22.7335 69.6612 22.3932 69.2148 22.1305C68.7685 21.8677 68.2166 21.7363 67.5591 21.7363H63.4844ZM67.7174 30.4715H65.0106V27.2618H67.811C68.1566 27.2618 68.4565 27.3345 68.7109 27.48C68.9701 27.6208 69.1669 27.8155 69.3012 28.0642C69.4404 28.3083 69.51 28.5828 69.51 28.8878C69.51 29.2163 69.4308 29.5002 69.2724 29.7395C69.1189 29.9741 68.9053 30.1548 68.6317 30.2815C68.3629 30.4082 68.0582 30.4715 67.7174 30.4715ZM67.5375 25.8752H65.0106V23.1229H67.5375C67.9886 23.1229 68.3486 23.2496 68.6173 23.503C68.8861 23.7564 69.0205 24.0802 69.0205 24.4744C69.0205 24.77 68.9533 25.0234 68.8189 25.2346C68.6893 25.4411 68.5117 25.6006 68.2862 25.7133C68.0654 25.8212 67.8158 25.8752 67.5375 25.8752ZM80.6398 31.8723H79.1136V24.3336L74.0094 31.8723H72.4832V21.7363H74.0094V29.2679L79.1136 21.7363H80.6398V31.8723ZM82.6491 21.7363V31.8723H84.1537V27.0295L88.7755 31.8723H90.7049L85.7807 26.6846L90.3665 21.7363H88.4947L84.1537 26.4664V21.7363H82.6491ZM94.3027 31.8723V23.1229H90.8544V21.7363H99.2557V23.1229H95.8073V31.8723H94.3027ZM102.085 31.4218C102.815 31.8629 103.698 32.0834 104.734 32.0834C105.766 32.0834 106.647 31.8629 107.376 31.4218C108.111 30.976 108.67 30.3566 109.054 29.5635C109.438 28.7705 109.63 27.8507 109.63 26.8043C109.63 25.7578 109.438 24.8381 109.054 24.045C108.67 23.252 108.111 22.6349 107.376 22.1938C106.647 21.748 105.766 21.5251 104.734 21.5251C103.698 21.5251 102.815 21.748 102.085 22.1938C101.356 22.6349 100.797 23.252 100.408 24.045C100.024 24.8381 99.8318 25.7578 99.8318 26.8043C99.8318 27.8507 100.024 28.7705 100.408 29.5635C100.797 30.3566 101.356 30.976 102.085 31.4218ZM106.563 30.2111C106.078 30.5349 105.469 30.6921 104.734 30.6827C104 30.678 103.386 30.5138 102.891 30.19C102.402 29.8662 102.035 29.4157 101.79 28.8385C101.545 28.2566 101.425 27.5786 101.43 26.8043C101.435 26.03 101.56 25.3496 101.804 24.763C102.049 24.1764 102.414 23.7213 102.899 23.3975C103.388 23.0737 104 22.9165 104.734 22.9259C105.469 22.9306 106.078 23.0948 106.563 23.4186C107.052 23.7424 107.42 24.1952 107.664 24.7771C107.909 25.3543 108.032 26.03 108.032 26.8043C108.032 27.5786 107.909 28.259 107.664 28.8456C107.42 29.4274 107.052 29.8826 106.563 30.2111ZM111.066 21.7363H115.256C115.356 21.7363 115.481 21.741 115.63 21.7504C115.779 21.7551 115.92 21.7691 116.055 21.7926C116.631 21.8818 117.111 22.0742 117.495 22.3698C117.883 22.6654 118.174 23.0385 118.366 23.489C118.558 23.9395 118.654 24.4369 118.654 24.9812C118.654 25.5302 118.558 26.03 118.366 26.4805C118.174 26.931 117.883 27.304 117.495 27.5997C117.111 27.8953 116.631 28.0877 116.055 28.1769C115.92 28.1956 115.776 28.2097 115.623 28.2191C115.474 28.2285 115.352 28.2332 115.256 28.2332H112.57V31.8723H111.066V21.7363ZM112.57 26.8395H115.198C115.294 26.8395 115.4 26.8348 115.515 26.8254C115.635 26.816 115.748 26.7996 115.853 26.7761C116.16 26.7057 116.407 26.5767 116.595 26.389C116.782 26.1966 116.916 25.976 116.998 25.7273C117.079 25.4786 117.12 25.2299 117.12 24.9812C117.12 24.7325 117.079 24.4861 116.998 24.2421C116.916 23.9934 116.782 23.7752 116.595 23.5875C116.407 23.3951 116.16 23.2637 115.853 23.1933C115.748 23.1652 115.635 23.1464 115.515 23.137C115.4 23.1276 115.294 23.1229 115.198 23.1229H112.57V26.8395ZM124.332 21.7363H122.165L118.796 31.8723H120.359L121.117 29.5846H125.372L126.139 31.8723H127.702L124.332 21.7363ZM124.909 28.205L123.232 23.206L121.575 28.205H124.909ZM131.876 21.7363H138.499V23.1229H133.38V25.9667H137.635V27.3533H133.38V30.4856H138.499V31.8723H131.876V21.7363ZM144.417 21.7363H140.228V31.8723H141.732V28.2332H144.417C144.513 28.2332 144.636 28.2285 144.785 28.2191C144.938 28.2097 145.082 28.1956 145.217 28.1769C145.792 28.0877 146.272 27.8953 146.656 27.5997C147.045 27.304 147.335 26.931 147.527 26.4805C147.719 26.03 147.815 25.5302 147.815 24.9812C147.815 24.4369 147.719 23.9395 147.527 23.489C147.335 23.0385 147.045 22.6654 146.656 22.3698C146.272 22.0742 145.792 21.8818 145.217 21.7926C145.082 21.7691 144.941 21.7551 144.792 21.7504C144.643 21.741 144.518 21.7363 144.417 21.7363ZM144.36 26.8395H141.732V23.1229H144.36C144.456 23.1229 144.561 23.1276 144.677 23.137C144.797 23.1464 144.909 23.1652 145.015 23.1933C145.322 23.2637 145.569 23.3951 145.756 23.5875C145.944 23.7752 146.078 23.9934 146.16 24.2421C146.241 24.4861 146.282 24.7325 146.282 24.9812C146.282 25.2299 146.241 25.4786 146.16 25.7273C146.078 25.976 145.944 26.1966 145.756 26.389C145.569 26.5767 145.322 26.7057 145.015 26.7761C144.909 26.7996 144.797 26.816 144.677 26.8254C144.561 26.8348 144.456 26.8395 144.36 26.8395ZM149.255 21.7363H155.878V23.1229H150.759V25.9667H155.014V27.3533H150.759V30.4856H155.878V31.8723H149.255V21.7363ZM158.967 21.7363H157.607V31.8723H159.025V24.9319L162.38 31.8723H163.064L166.411 24.9319V31.8652H167.837V21.7363H166.461L162.725 29.3594L158.967 21.7363ZM169.853 21.7363H176.477V23.1229H171.358V25.9667H175.613V27.3533H171.358V30.4856H176.477V31.8723H169.853V21.7363ZM184.829 21.7363H178.206V31.8723H184.829V30.4856H179.71V27.3533H183.965V25.9667H179.71V23.1229H184.829V21.7363ZM186.558 21.7363H190.632C191.29 21.7363 191.842 21.8677 192.288 22.1305C192.734 22.3932 193.07 22.7335 193.296 23.1511C193.521 23.5641 193.634 24.0005 193.634 24.4603C193.634 25.0188 193.493 25.4974 193.21 25.8963C193.027 26.1577 192.802 26.3646 192.536 26.5172C192.973 26.6941 193.325 26.9563 193.591 27.304C193.946 27.7639 194.124 28.3012 194.124 28.9159C194.124 29.5119 194.001 30.0304 193.757 30.4715C193.517 30.9126 193.164 31.2575 192.698 31.5063C192.238 31.7503 191.679 31.8723 191.021 31.8723H186.558V21.7363ZM188.084 30.4715H190.791C191.131 30.4715 191.436 30.4082 191.705 30.2815C191.978 30.1548 192.192 29.9741 192.346 29.7395C192.504 29.5002 192.583 29.2163 192.583 28.8878C192.583 28.5828 192.514 28.3083 192.374 28.0642C192.24 27.8155 192.043 27.6208 191.784 27.48C191.53 27.3345 191.23 27.2618 190.884 27.2618H188.084V30.4715ZM188.084 25.8752H190.611C190.889 25.8752 191.139 25.8212 191.359 25.7133C191.585 25.6006 191.763 25.4411 191.892 25.2346C192.026 25.0234 192.094 24.77 192.094 24.4744C192.094 24.0802 191.959 23.7564 191.691 23.503C191.422 23.2496 191.062 23.1229 190.611 23.1229H188.084V25.8752ZM200.373 21.7363H198.206L194.837 31.8723H196.399L197.157 29.5846H201.412L202.18 31.8723H203.742L200.373 21.7363ZM200.949 28.205L199.272 23.206L197.615 28.205H200.949Z" fill="url(#paint0_linear_114_841)"></path><defs><linearGradient id="paint0_linear_114_841" x1="406.583" y1="19.1667" x2="0.588796" y2="6.48007" gradientUnits="userSpaceOnUse"><stop stop-color="#41B785"></stop><stop offset="0.5" stop-color="#02A492"></stop><stop offset="1" stop-color="#8271F5"></stop></linearGradient></defs></svg> 