<?xml version="1.0" encoding="UTF-8"?> <svg xmlns="http://www.w3.org/2000/svg" width="1105" height="206" viewBox="0 0 1105 206" fill="none"><path d="M50.8328 154.475C50.5626 154.475 50.4275 154.204 50.4275 153.664C50.4275 153.124 50.5626 152.854 50.8328 152.854C53.9849 152.854 56.3265 152.628 57.8575 152.178C59.3885 151.728 60.4242 150.827 60.9646 149.476C61.5049 148.125 61.7751 146.144 61.7751 143.532V80.9855C61.7751 78.3737 61.5049 76.4374 60.9646 75.1766C60.5143 73.8257 59.5687 72.9251 58.1277 72.4748C56.6867 71.9344 54.4803 71.6642 51.5083 71.6642C51.2381 71.6642 51.103 71.3941 51.103 70.8537C51.103 70.3134 51.2381 70.0432 51.5083 70.0432H107.706C108.606 70.0432 109.057 70.4484 109.057 71.259L109.327 88.8207C109.327 89.0008 109.102 89.1359 108.651 89.226C108.201 89.226 107.886 89.0909 107.706 88.8207C106.715 83.6873 104.644 79.8597 101.492 77.338C98.3396 74.8164 94.1968 73.5555 89.0634 73.5555H83.5247C80.1924 73.5555 77.8509 74.1409 76.5 75.3117C75.2391 76.4825 74.6087 78.4188 74.6087 81.1206V142.992C74.6087 145.694 74.9689 147.765 75.6894 149.206C76.4099 150.557 77.8509 151.503 80.0123 152.043C82.1738 152.583 85.4159 152.854 89.7388 152.854C89.9189 152.854 90.009 153.124 90.009 153.664C90.009 154.204 89.9189 154.475 89.7388 154.475C86.6768 154.475 83.3896 154.43 79.8772 154.34C76.3649 154.249 72.3572 154.204 67.8542 154.204C64.7021 154.204 61.64 154.249 58.6681 154.34C55.6961 154.43 53.0843 154.475 50.8328 154.475ZM100.951 125.43C100.951 121.738 99.6454 118.901 97.0337 116.92C94.512 114.938 90.6394 113.948 85.4159 113.948H68.5296V110.435H85.6861C90.8195 110.435 94.6021 109.58 97.0337 107.868C99.5554 106.067 100.816 103.546 100.816 100.303C100.816 100.123 101.086 100.033 101.627 100.033C102.167 100.033 102.437 100.123 102.437 100.303C102.437 103.275 102.392 105.572 102.302 107.193C102.302 108.814 102.302 110.48 102.302 112.191C102.302 114.353 102.347 116.514 102.437 118.676C102.527 120.747 102.572 122.999 102.572 125.43C102.572 125.7 102.302 125.835 101.762 125.835C101.221 125.835 100.951 125.7 100.951 125.43ZM205.724 70.0432C205.995 70.0432 206.13 70.3134 206.13 70.8537C206.13 71.3941 205.995 71.6642 205.724 71.6642C202.572 71.6642 199.645 72.8801 196.944 75.3117C194.242 77.7433 192.035 81.2557 190.324 85.8487L163.981 154.34C163.891 154.7 163.396 154.88 162.496 154.88C161.685 154.88 161.19 154.7 161.01 154.34L126.832 81.2557C125.301 78.0135 123.725 75.6269 122.104 74.0959C120.482 72.4748 118.501 71.6642 116.16 71.6642C115.889 71.6642 115.754 71.3941 115.754 70.8537C115.754 70.3134 115.889 70.0432 116.16 70.0432C117.33 70.0432 118.276 70.0882 118.996 70.1783C119.807 70.2683 120.753 70.3584 121.833 70.4484C123.004 70.4484 124.535 70.4484 126.426 70.4484C130.749 70.4484 134.262 70.4484 136.963 70.4484C139.755 70.3584 142.052 70.2683 143.853 70.1783C145.744 70.0882 147.41 70.0432 148.851 70.0432C149.122 70.0432 149.257 70.3134 149.257 70.8537C149.257 71.3941 149.122 71.6642 148.851 71.6642C145.069 71.6642 142.502 72.6099 141.151 74.5011C139.89 76.3924 140.116 79.0942 141.827 82.6066L167.899 139.074L162.36 148.396L186.677 85.3084C188.208 81.2557 188.298 77.9685 186.947 75.4468C185.596 72.9251 182.624 71.6642 178.031 71.6642C177.761 71.6642 177.626 71.3941 177.626 70.8537C177.626 70.3134 177.761 70.0432 178.031 70.0432C180.463 70.0432 182.804 70.1332 185.056 70.3133C187.307 70.4034 190.234 70.4484 193.836 70.4484C196.358 70.4484 198.384 70.4034 199.916 70.3133C201.537 70.1332 203.473 70.0432 205.724 70.0432ZM258.108 68.5572C261.98 68.5572 266.123 68.9174 270.536 69.6379C274.949 70.2683 278.461 71.259 281.073 72.6099C281.884 72.8801 282.379 73.2403 282.559 73.6906C282.829 74.0508 283.009 74.7263 283.099 75.717L284.721 93.2787C284.721 93.4588 284.495 93.6389 284.045 93.8191C283.685 93.9091 283.415 93.774 283.235 93.4138C280.623 86.3891 276.66 81.0305 271.347 77.338C266.123 73.6456 259.954 71.7993 252.839 71.7993C246.445 71.7993 240.996 73.3304 236.493 76.3924C232.08 79.4545 228.658 83.7323 226.226 89.226C223.885 94.6296 222.714 100.934 222.714 108.139C222.714 114.443 223.57 120.342 225.281 125.835C226.992 131.329 229.379 136.147 232.441 140.29C235.503 144.433 239.105 147.675 243.248 150.017C247.391 152.358 251.894 153.529 256.757 153.529C262.701 153.529 267.969 151.728 272.562 148.125C277.246 144.433 281.208 138.669 284.45 130.834C284.631 130.474 284.946 130.384 285.396 130.564C285.846 130.654 286.071 130.789 286.071 130.969L284.045 148.26C283.865 149.341 283.64 150.062 283.37 150.422C283.19 150.692 282.694 151.007 281.884 151.368C277.741 152.989 273.553 154.159 269.32 154.88C265.087 155.69 260.945 156.096 256.892 156.096C248.246 156.096 240.816 154.79 234.602 152.178C228.388 149.476 223.345 145.964 219.472 141.641C215.599 137.228 212.717 132.41 210.826 127.186C209.025 121.963 208.124 116.829 208.124 111.786C208.124 105.212 209.475 99.2677 212.177 93.9542C214.969 88.6406 218.706 84.0926 223.39 80.31C228.073 76.5275 233.386 73.6456 239.33 71.6642C245.364 69.5929 251.623 68.5572 258.108 68.5572Z" fill="#354C62"></path><path d="M431.02 117.826C430.802 117.826 430.693 117.608 430.693 117.171C430.693 116.735 430.802 116.516 431.02 116.516C433.64 116.516 435.532 116.335 436.696 115.971C437.933 115.607 438.769 114.916 439.206 113.897C439.643 112.806 439.861 111.168 439.861 108.986V58.4519C439.861 56.2691 439.643 54.6683 439.206 53.6496C438.842 52.6309 438.078 51.9397 436.914 51.5759C435.75 51.1393 433.967 50.921 431.566 50.921C431.348 50.921 431.239 50.7027 431.239 50.2661C431.239 49.8296 431.348 49.6113 431.566 49.6113H476.97C477.697 49.6113 478.061 49.9387 478.061 50.5936L478.28 64.7823C478.28 64.9278 478.061 65.0369 477.625 65.1097C477.261 65.1097 477.043 65.0006 476.97 64.7823C475.224 56.5601 470.203 52.449 461.908 52.449H457.433C454.814 52.449 452.958 52.922 451.867 53.8679C450.775 54.8138 450.23 56.3782 450.23 58.5611V108.549C450.23 110.877 450.521 112.587 451.103 113.679C451.685 114.697 452.813 115.425 454.486 115.862C456.232 116.298 458.888 116.516 462.454 116.516C462.599 116.516 462.672 116.735 462.672 117.171C462.672 117.608 462.599 117.826 462.454 117.826C459.47 117.826 457.142 117.79 455.468 117.717L444.772 117.608L436.805 117.717C435.422 117.79 433.494 117.826 431.02 117.826ZM471.513 94.3602C471.513 88.1754 467.329 85.083 458.961 85.083H445.318V82.2453H459.179C467.329 82.2453 471.403 79.5167 471.403 74.0595C471.403 73.914 471.622 73.8412 472.058 73.8412C472.495 73.8412 472.713 73.914 472.713 74.0595L472.604 83.6642C472.604 85.9198 472.64 87.5933 472.713 88.6848L472.822 94.3602C472.822 94.5785 472.604 94.6877 472.167 94.6877C471.731 94.6877 471.513 94.5785 471.513 94.3602ZM542.192 117.826C540.445 117.826 537.208 114.77 532.478 108.658C527.821 102.546 522.146 94.0328 515.452 83.1184L524.183 80.499C530.295 89.5943 535.388 96.725 539.463 101.891C543.611 106.985 547.285 110.695 550.487 113.024C553.688 115.352 556.781 116.516 559.764 116.516C559.909 116.516 559.982 116.735 559.982 117.171C559.982 117.608 559.909 117.826 559.764 117.826H542.192ZM517.416 49.2838C523.674 49.2838 528.549 50.5572 532.041 53.1039C535.534 55.5778 537.28 58.9976 537.28 63.3634C537.28 67.4381 536.116 71.1126 533.788 74.3869C531.459 77.6612 528.367 80.2443 524.51 82.1361C520.727 83.9552 516.725 84.8647 512.505 84.8647C510.977 84.8647 509.121 84.792 506.938 84.6464V108.986C506.938 111.241 507.12 112.878 507.484 113.897C507.848 114.916 508.575 115.607 509.667 115.971C510.831 116.335 512.687 116.516 515.233 116.516C515.379 116.516 515.452 116.735 515.452 117.171C515.452 117.608 515.379 117.826 515.233 117.826C512.832 117.826 510.94 117.79 509.558 117.717L501.59 117.608L493.732 117.717C492.349 117.79 490.458 117.826 488.056 117.826C487.838 117.826 487.729 117.608 487.729 117.171C487.729 116.735 487.838 116.516 488.056 116.516C490.53 116.516 492.313 116.335 493.404 115.971C494.569 115.607 495.369 114.916 495.806 113.897C496.242 112.806 496.461 111.168 496.461 108.986V58.4519C496.461 56.2691 496.242 54.6683 495.806 53.6496C495.442 52.6309 494.678 51.9397 493.514 51.5759C492.349 51.1393 490.567 50.921 488.166 50.921C488.02 50.921 487.947 50.7027 487.947 50.2661C487.947 49.8296 488.02 49.6113 488.166 49.6113L493.841 49.7204C497.043 49.8659 499.626 49.9387 501.59 49.9387C503.991 49.9387 506.611 49.8296 509.449 49.6113C510.395 49.5385 511.522 49.4657 512.832 49.393C514.215 49.3202 515.743 49.2838 517.416 49.2838ZM526.475 67.1834C526.475 61.2897 525.456 57.1786 523.419 54.8502C521.454 52.5218 518.58 51.3576 514.797 51.3576C511.886 51.3576 509.849 51.9033 508.685 52.9947C507.52 54.0134 506.938 55.9052 506.938 58.6702V81.6996C508.685 81.9906 510.795 82.1361 513.269 82.1361C517.998 82.1361 521.382 80.9719 523.419 78.6435C525.456 76.2424 526.475 72.4223 526.475 67.1834ZM582.406 108.986C582.406 111.241 582.588 112.878 582.952 113.897C583.388 114.916 584.152 115.607 585.244 115.971C586.408 116.335 588.227 116.516 590.701 116.516C590.919 116.516 591.029 116.735 591.029 117.171C591.029 117.608 590.919 117.826 590.701 117.826C588.373 117.826 586.517 117.79 585.135 117.717L577.058 117.608L569.2 117.717C567.817 117.79 565.925 117.826 563.524 117.826C563.306 117.826 563.197 117.608 563.197 117.171C563.197 116.735 563.306 116.516 563.524 116.516C565.998 116.516 567.781 116.335 568.872 115.971C570.037 115.607 570.837 114.916 571.273 113.897C571.71 112.806 571.928 111.168 571.928 108.986V58.4519C571.928 56.2691 571.71 54.6683 571.273 53.6496C570.837 52.6309 570.037 51.9397 568.872 51.5759C567.781 51.1393 565.998 50.921 563.524 50.921C563.306 50.921 563.197 50.7027 563.197 50.2661C563.197 49.8296 563.306 49.6113 563.524 49.6113L569.2 49.7204C572.401 49.8659 575.021 49.9387 577.058 49.9387C579.314 49.9387 582.042 49.8659 585.244 49.7204L590.701 49.6113C590.919 49.6113 591.029 49.8296 591.029 50.2661C591.029 50.7027 590.919 50.921 590.701 50.921C588.3 50.921 586.517 51.1393 585.353 51.5759C584.189 52.0124 583.388 52.7764 582.952 53.8679C582.588 54.8866 582.406 56.4873 582.406 58.6702V108.986ZM600.291 117.826C600.073 117.826 599.964 117.608 599.964 117.171C599.964 116.735 600.073 116.516 600.291 116.516C602.765 116.516 604.548 116.335 605.639 115.971C606.804 115.607 607.568 114.916 607.931 113.897C608.368 112.806 608.586 111.168 608.586 108.986V58.4519C608.586 56.2691 608.368 54.6683 607.931 53.6496C607.568 52.6309 606.804 51.9397 605.639 51.5759C604.475 51.1393 602.692 50.921 600.291 50.921C600.073 50.921 599.964 50.7027 599.964 50.2661C599.964 49.8296 600.073 49.6113 600.291 49.6113H645.695C646.423 49.6113 646.787 49.9387 646.787 50.5936L647.005 64.7823C647.005 64.9278 646.787 65.0369 646.35 65.1097C645.986 65.1097 645.768 65.0006 645.695 64.7823C643.949 56.5601 638.928 52.449 630.633 52.449H626.158C623.466 52.449 621.574 52.922 620.483 53.8679C619.464 54.8138 618.955 56.4146 618.955 58.6702V108.549C618.955 110.95 619.391 112.624 620.265 113.57C621.21 114.515 622.848 114.988 625.176 114.988H630.524C640.274 114.988 646.459 110.295 649.079 100.909C649.079 100.763 649.26 100.691 649.624 100.691C650.134 100.691 650.388 100.8 650.388 101.018C649.661 106.548 649.297 111.605 649.297 116.189C649.297 116.771 649.188 117.208 648.969 117.499C648.751 117.717 648.315 117.826 647.66 117.826H600.291ZM641.548 93.1597C641.548 86.9021 637.473 83.7733 629.324 83.7733H614.043V80.9356H629.433C637.437 80.9356 641.438 78.2433 641.438 72.8589C641.438 72.6406 641.62 72.5315 641.984 72.5315C642.421 72.5315 642.639 72.6406 642.639 72.8589L642.53 82.3544L642.639 87.4842C642.785 89.8126 642.857 91.7044 642.857 93.1597C642.857 93.3052 642.639 93.378 642.202 93.378C641.766 93.378 641.548 93.3052 641.548 93.1597ZM669.038 52.1216L671.985 52.3399V104.62C671.985 108.476 672.713 111.423 674.168 113.46C675.696 115.498 677.915 116.516 680.826 116.516C681.044 116.516 681.153 116.735 681.153 117.171C681.153 117.608 681.044 117.826 680.826 117.826C678.934 117.826 677.479 117.79 676.46 117.717L670.675 117.608L664.236 117.717C663.072 117.79 661.398 117.826 659.215 117.826C658.997 117.826 658.888 117.608 658.888 117.171C658.888 116.735 658.997 116.516 659.215 116.516C662.344 116.516 664.745 115.498 666.419 113.46C668.165 111.423 669.038 108.476 669.038 104.62V52.1216ZM724.483 119.354C724.483 119.572 724.301 119.718 723.938 119.791C723.574 119.864 723.319 119.827 723.174 119.682L670.675 58.5611C668.201 55.7233 666.019 53.7587 664.127 52.6673C662.235 51.5031 660.379 50.921 658.56 50.921C658.342 50.921 658.233 50.7027 658.233 50.2661C658.233 49.8296 658.342 49.6113 658.56 49.6113L662.926 49.7204C663.799 49.7932 665.109 49.8296 666.855 49.8296L673.841 49.7204C674.714 49.6477 675.732 49.6113 676.897 49.6113C677.479 49.6113 677.915 49.7568 678.206 50.0478C678.497 50.3389 678.934 50.921 679.516 51.7942C680.753 53.4677 681.663 54.6319 682.245 55.2868L723.61 103.965L724.483 119.354ZM724.483 119.354L721.536 116.08V62.9268C721.536 59.0704 720.772 56.1235 719.244 54.0862C717.789 51.9761 715.606 50.921 712.696 50.921C712.55 50.921 712.477 50.7027 712.477 50.2661C712.477 49.8296 712.55 49.6113 712.696 49.6113L717.171 49.7204C719.499 49.8659 721.427 49.9387 722.955 49.9387C724.338 49.9387 726.339 49.8659 728.958 49.7204L733.542 49.6113C733.761 49.6113 733.87 49.8296 733.87 50.2661C733.87 50.7027 733.761 50.921 733.542 50.921C730.632 50.921 728.376 51.9761 726.775 54.0862C725.247 56.1235 724.483 59.0704 724.483 62.9268V119.354ZM770.042 118.263C767.787 118.263 765.131 118.154 762.075 117.935C760.983 117.863 759.601 117.79 757.927 117.717C756.254 117.644 754.398 117.608 752.361 117.608L744.612 117.717C743.229 117.79 741.301 117.826 738.827 117.826C738.682 117.826 738.609 117.608 738.609 117.171C738.609 116.735 738.682 116.516 738.827 116.516C741.301 116.516 743.084 116.335 744.175 115.971C745.339 115.607 746.14 114.916 746.576 113.897C747.013 112.806 747.231 111.168 747.231 108.986V58.4519C747.231 56.2691 747.013 54.6683 746.576 53.6496C746.213 52.6309 745.449 51.9397 744.284 51.5759C743.12 51.1393 741.337 50.921 738.936 50.921C738.791 50.921 738.718 50.7027 738.718 50.2661C738.718 49.8296 738.791 49.6113 738.936 49.6113L744.721 49.7204C747.922 49.8659 750.469 49.9387 752.361 49.9387C755.199 49.9387 758.146 49.8296 761.202 49.6113C764.84 49.4658 767.277 49.393 768.514 49.393C775.936 49.393 782.521 50.8482 788.269 53.7587C794.018 56.6692 798.456 60.6348 801.585 65.6554C804.786 70.676 806.387 76.3151 806.387 82.5727C806.387 89.6307 804.75 95.8883 801.476 101.345C798.201 106.73 793.799 110.914 788.269 113.897C782.739 116.807 776.664 118.263 770.042 118.263ZM768.951 116.08C773.971 116.08 778.41 114.879 782.266 112.478C786.196 110.077 789.252 106.548 791.434 101.891C793.617 97.1616 794.709 91.5225 794.709 84.9739C794.709 78.7163 793.654 73.0772 791.544 68.0566C789.506 62.9632 786.596 58.9613 782.812 56.0508C779.028 53.0675 774.626 51.5759 769.606 51.5759C766.477 51.5759 764.076 51.7578 762.402 52.1216C760.801 52.4854 759.601 53.1766 758.8 54.1953C758 55.1412 757.6 56.6329 757.6 58.6702V107.785C757.6 110.768 758.364 112.915 759.892 114.224C761.493 115.461 764.512 116.08 768.951 116.08ZM833.913 108.549C833.913 110.441 834.095 111.86 834.458 112.806C834.822 113.679 835.477 114.261 836.423 114.552C837.369 114.843 838.897 114.988 841.007 114.988H847.556C852.722 114.988 857.088 113.57 860.653 110.732C864.218 107.821 866.583 103.929 867.747 99.0534C867.747 98.9079 867.893 98.8351 868.184 98.8351C868.329 98.8351 868.475 98.9079 868.62 99.0534C868.839 99.1262 868.948 99.199 868.948 99.2717C868.293 105.966 867.966 111.605 867.966 116.189C867.966 116.771 867.856 117.208 867.638 117.499C867.42 117.717 866.983 117.826 866.328 117.826H815.249C815.104 117.826 815.031 117.608 815.031 117.171C815.031 116.735 815.104 116.516 815.249 116.516C817.723 116.516 819.506 116.335 820.597 115.971C821.761 115.607 822.525 114.916 822.889 113.897C823.326 112.806 823.544 111.168 823.544 108.986V58.4519C823.544 56.2691 823.326 54.6683 822.889 53.6496C822.525 52.6309 821.761 51.9397 820.597 51.5759C819.433 51.1393 817.65 50.921 815.249 50.921C815.104 50.921 815.031 50.7027 815.031 50.2661C815.031 49.8296 815.104 49.6113 815.249 49.6113L820.815 49.7204C824.017 49.8659 826.637 49.9387 828.674 49.9387C830.857 49.9387 833.549 49.8659 836.751 49.7204L842.208 49.6113C842.426 49.6113 842.535 49.8296 842.535 50.2661C842.535 50.7027 842.426 50.921 842.208 50.921C839.807 50.921 838.024 51.1393 836.86 51.5759C835.695 51.9397 834.895 52.6673 834.458 53.7587C834.095 54.7774 833.913 56.3782 833.913 58.5611V108.549ZM916.707 63.4725C918.526 60.4893 919.435 57.9062 919.435 55.7233C919.435 52.5218 917.435 50.921 913.433 50.921C913.287 50.921 913.214 50.7027 913.214 50.2661C913.214 49.8296 913.287 49.6113 913.433 49.6113L919.108 49.7204C922.164 49.8659 924.965 49.9387 927.512 49.9387C928.749 49.9387 930.241 49.8659 931.987 49.7204L936.025 49.6113C936.171 49.6113 936.244 49.8296 936.244 50.2661C936.244 50.7027 936.171 50.921 936.025 50.921C933.624 50.921 930.896 52.1943 927.84 54.741C924.784 57.215 922.055 60.4165 919.654 64.3457L904.483 88.9031L902.3 87.1568L916.707 63.4725ZM880.144 61.1805C877.67 57.3241 875.523 54.6683 873.704 53.213C871.958 51.685 870.248 50.921 868.574 50.921C868.356 50.921 868.247 50.7027 868.247 50.2661C868.247 49.8296 868.356 49.6113 868.574 49.6113L872.176 49.7204C873.777 49.8659 874.941 49.9387 875.669 49.9387C878.07 49.9387 881.526 49.8659 886.037 49.7204L892.914 49.6113C893.059 49.6113 893.132 49.8296 893.132 50.2661C893.132 50.7027 893.059 50.921 892.914 50.921C889.858 50.921 888.33 51.9033 888.33 53.8679C888.33 54.741 888.802 55.9416 889.748 57.4696L906.447 83.1184L897.716 88.0299L880.144 61.1805ZM907.211 83.0093V108.986C907.211 111.241 907.393 112.878 907.757 113.897C908.121 114.916 908.849 115.607 909.94 115.971C911.104 116.335 912.923 116.516 915.397 116.516C915.615 116.516 915.725 116.735 915.725 117.171C915.725 117.608 915.615 117.826 915.397 117.826C913.069 117.826 911.25 117.79 909.94 117.717L901.972 117.608L894.114 117.717C892.659 117.79 890.731 117.826 888.33 117.826C888.184 117.826 888.111 117.608 888.111 117.171C888.111 116.735 888.184 116.516 888.33 116.516C890.803 116.516 892.622 116.335 893.787 115.971C894.951 115.607 895.751 114.916 896.188 113.897C896.624 112.806 896.843 111.168 896.843 108.986V83.9916L907.211 83.0093ZM1033.77 49.6113C1033.99 49.6113 1034.1 49.8296 1034.1 50.2661C1034.1 50.7027 1033.99 50.921 1033.77 50.921C1031.23 50.921 1028.86 51.9033 1026.68 53.8679C1024.5 55.8325 1022.71 58.6702 1021.33 62.3811L1000.05 117.717C999.975 118.008 999.575 118.154 998.847 118.154C998.119 118.154 997.719 118.008 997.646 117.717L970.033 58.6702C968.723 55.978 967.414 54.0134 966.104 52.7764C964.794 51.5395 963.23 50.921 961.411 50.921C961.192 50.921 961.083 50.7027 961.083 50.2661C961.083 49.8296 961.192 49.6113 961.411 49.6113L964.248 49.7204C965.995 49.8659 967.814 49.9387 969.706 49.9387C974.799 49.9387 979.383 49.8659 983.458 49.7204C984.622 49.6477 986.077 49.6113 987.823 49.6113C988.042 49.6113 988.151 49.8296 988.151 50.2661C988.151 50.7027 988.042 50.921 987.823 50.921C985.641 50.921 983.967 51.3212 982.803 52.1216C981.639 52.922 981.057 54.0862 981.057 55.6142C981.057 56.9239 981.42 58.3064 982.148 59.7617L1003.21 105.384L998.738 112.915L1018.38 61.9445C1019.04 60.1982 1019.37 58.6338 1019.37 57.2513C1019.37 55.214 1018.67 53.6496 1017.29 52.5582C1015.98 51.4667 1014.02 50.921 1011.4 50.921C1011.18 50.921 1011.07 50.7027 1011.07 50.2661C1011.07 49.8296 1011.18 49.6113 1011.4 49.6113L1016.42 49.7204C1019.33 49.8659 1021.91 49.9387 1024.17 49.9387C1025.55 49.9387 1027.26 49.8659 1029.3 49.7204L1033.77 49.6113ZM1076.32 48.4107C1084.39 48.4107 1090.9 49.5385 1095.85 51.7942C1096.43 52.0852 1096.8 52.3763 1096.94 52.6673C1097.09 52.8856 1097.24 53.4313 1097.38 54.3045L1098.69 68.7114C1098.69 68.9297 1098.51 69.0753 1098.14 69.148C1097.78 69.2208 1097.53 69.1116 1097.38 68.8206C1095.49 62.8541 1092.65 58.3064 1088.87 55.1776C1085.16 52.0488 1080.54 50.4844 1075.01 50.4844C1069.62 50.4844 1064.86 51.8305 1060.71 54.5227C1056.56 57.1422 1053.32 60.9622 1050.99 65.9829C1048.67 70.9307 1047.5 76.7153 1047.5 83.3367C1047.5 89.8854 1048.74 95.7427 1051.21 100.909C1053.69 106.002 1057.07 109.968 1061.36 112.806C1065.66 115.643 1070.5 117.062 1075.88 117.062C1081.19 117.062 1085.59 115.68 1089.09 112.915C1092.65 110.077 1095.78 105.602 1098.47 99.49C1098.55 99.2717 1098.76 99.199 1099.13 99.2717C1099.49 99.3445 1099.67 99.4536 1099.67 99.5992L1098.25 112.587C1098.11 113.46 1097.96 114.043 1097.82 114.334C1097.67 114.552 1097.31 114.807 1096.73 115.098C1090.18 117.79 1083.19 119.136 1075.77 119.136C1068.06 119.136 1061.15 117.681 1055.03 114.77C1048.92 111.787 1044.16 107.639 1040.74 102.328C1037.32 96.9433 1035.61 90.7949 1035.61 83.8824C1035.61 77.0428 1037.35 70.9307 1040.84 65.5463C1044.41 60.1618 1049.28 55.978 1055.47 52.9947C1061.65 49.9387 1068.6 48.4107 1076.32 48.4107Z" fill="#354C62"></path><path d="M436.653 161.213H439.957V177.519L450.213 161.213H453.518V182.924H450.192V166.617L439.936 182.924H436.631L436.653 161.213Z" fill="#354C62"></path><path d="M463.167 161.213H466.51V170.298H476.753V161.213H480.053V182.924H476.753V173.466H466.51V182.924H463.21L463.167 161.213Z" fill="#354C62"></path><path d="M489.789 161.242H498.513C500.486 161.072 502.45 161.657 504.053 162.891C504.62 163.425 505.07 164.084 505.371 164.822C505.673 165.561 505.818 166.361 505.798 167.166C505.798 167.648 505.725 168.127 505.58 168.584C505.422 169.051 505.21 169.496 504.947 169.908C504.68 170.313 504.356 170.674 503.988 170.977C503.607 171.265 503.188 171.492 502.745 171.65C503.87 171.899 504.88 172.556 505.602 173.509C506.254 174.432 506.599 175.56 506.583 176.715C506.618 177.559 506.478 178.4 506.173 179.179C505.867 179.958 505.404 180.656 504.817 181.222C503.227 182.471 501.267 183.066 499.299 182.895H489.702L489.789 161.242ZM498.513 170.396C499.589 170.507 500.667 170.22 501.567 169.583C501.869 169.292 502.106 168.932 502.257 168.529C502.408 168.126 502.47 167.692 502.439 167.259C502.46 166.859 502.392 166.458 502.24 166.091C502.088 165.724 501.858 165.4 501.567 165.145C500.665 164.515 499.586 164.236 498.513 164.355H493.083V170.303L498.513 170.396ZM499.299 179.689C500.393 179.83 501.5 179.55 502.417 178.899C502.718 178.606 502.954 178.245 503.108 177.844C503.263 177.442 503.332 177.009 503.312 176.576C503.328 176.143 503.256 175.711 503.102 175.31C502.948 174.91 502.714 174.549 502.417 174.252C501.54 173.601 500.472 173.304 499.408 173.416H493.192V179.782L499.299 179.689Z" fill="#354C62"></path><path d="M524.983 182.924C523.52 182.927 522.067 182.707 520.687 182.273C519.346 181.875 518.125 181.206 517.119 180.32C516.095 179.397 515.291 178.297 514.757 177.087C514.112 175.576 513.796 173.968 513.828 172.351V171.475C513.799 169.942 514.097 168.419 514.707 166.986C515.251 165.789 516.063 164.704 517.094 163.798C518.065 162.938 519.242 162.285 520.536 161.89C521.857 161.465 523.252 161.253 524.656 161.261C526.114 161.124 527.587 161.279 528.969 161.716C530.351 162.152 531.606 162.858 532.644 163.783C533.681 164.708 534.475 165.828 534.966 167.062C535.458 168.295 535.635 169.611 535.485 170.914V173.159H517.722C517.691 174.228 517.914 175.292 518.375 176.279C518.782 177.064 519.373 177.761 520.109 178.322C520.755 178.786 521.498 179.129 522.295 179.332C523.108 179.562 523.954 179.683 524.807 179.691C526.218 179.76 527.624 179.488 528.877 178.906C529.823 178.382 530.548 177.592 530.937 176.661H534.857C534.652 177.613 534.224 178.516 533.601 179.31C533.006 180.065 532.255 180.713 531.39 181.218C530.479 181.748 529.477 182.142 528.425 182.385C527.31 182.7 526.152 182.882 524.983 182.924ZM524.807 164.359C523.906 164.358 523.009 164.471 522.144 164.696C521.314 164.909 520.543 165.276 519.883 165.773C519.201 166.264 518.652 166.886 518.275 167.592C517.83 168.417 517.615 169.325 517.647 170.241H531.741C531.749 169.301 531.544 168.369 531.138 167.502C530.813 166.799 530.305 166.176 529.656 165.684C529.013 165.216 528.269 164.872 527.47 164.673C526.602 164.464 525.706 164.358 524.807 164.359Z" fill="#354C62"></path><path d="M550.443 182.922C549.083 182.931 547.732 182.711 546.455 182.272C545.244 181.848 544.15 181.174 543.255 180.298C542.308 179.335 541.584 178.197 541.13 176.957C540.582 175.45 540.323 173.863 540.366 172.27V171.485C540.323 169.953 540.607 168.428 541.202 167C541.696 165.797 542.452 164.705 543.422 163.793C544.332 162.945 545.422 162.288 546.622 161.865C547.84 161.423 549.137 161.202 550.443 161.214C551.642 161.195 552.836 161.362 553.977 161.708C554.967 162.031 555.889 162.517 556.699 163.143C557.473 163.734 558.121 164.457 558.609 165.273C559.096 166.094 559.45 166.978 559.66 167.897H555.887C555.676 167.414 555.42 166.948 555.123 166.507C554.821 166.082 554.451 165.703 554.025 165.386C553.559 165.061 553.043 164.804 552.496 164.623C551.83 164.435 551.138 164.344 550.443 164.354C549.625 164.347 548.813 164.492 548.055 164.78C547.294 165.051 546.608 165.481 546.049 166.036C545.405 166.674 544.924 167.441 544.64 168.278C544.26 169.324 544.083 170.425 544.115 171.53V172.315C544.084 173.486 544.261 174.653 544.64 175.769C544.932 176.603 545.412 177.368 546.049 178.011C546.593 178.594 547.282 179.041 548.055 179.312C548.813 179.6 549.625 179.745 550.443 179.738C551.673 179.772 552.885 179.443 553.905 178.796C554.849 178.154 555.544 177.241 555.887 176.195H559.66C559.21 178.139 558.053 179.875 556.388 181.106C554.68 182.321 552.586 182.96 550.443 182.922Z" fill="#354C62"></path><path d="M571.281 164.387H564.484V161.213H581.371V164.387H574.637V182.924H571.387L571.281 164.387Z" fill="#354C62"></path><path d="M588.608 161.213H591.917V177.519L602.185 161.213H605.494V182.924H602.185V166.617L591.917 182.924H588.608V161.213Z" fill="#354C62"></path><path d="M633.328 182.588H615.144V161.213H618.862V179.561H629.562V161.213H633.28V179.561H636.854V187.748H633.328V182.588Z" fill="#354C62"></path><path d="M641.776 161.213H645.456V177.519L657.2 161.213H660.977V182.924H657.2V166.617L645.456 182.924H641.679L641.776 161.213Z" fill="#354C62"></path><path d="M668.215 161.213H672.464V177.519L685.677 161.213H689.926V182.924H685.677V166.617L672.464 182.924H668.215V161.213Z" fill="#354C62"></path><path d="M711.636 161.242H720.469C722.434 161.071 724.392 161.656 725.987 162.891C726.56 163.42 727.015 164.078 727.321 164.817C727.626 165.557 727.774 166.359 727.753 167.166C727.746 167.649 727.665 168.128 727.514 168.583C727.365 169.055 727.152 169.501 726.881 169.907C726.613 170.313 726.29 170.673 725.921 170.976C725.54 171.264 725.121 171.491 724.678 171.65C725.779 171.87 726.77 172.501 727.473 173.429C728.176 174.357 728.546 175.522 728.517 176.714C728.552 177.558 728.411 178.399 728.106 179.178C727.801 179.957 727.338 180.655 726.75 181.221C725.163 182.474 723.201 183.069 721.232 182.894H711.636V161.242ZM720.469 170.302C721.544 170.41 722.621 170.123 723.522 169.489C723.817 169.194 724.047 168.832 724.194 168.43C724.341 168.028 724.402 167.596 724.373 167.166C724.393 166.768 724.326 166.37 724.179 166.003C724.031 165.637 723.807 165.311 723.522 165.052C722.619 164.426 721.541 164.147 720.469 164.262H715.016V170.302H720.469ZM721.232 179.595C722.3 179.701 723.37 179.414 724.264 178.782C724.56 178.486 724.792 178.125 724.943 177.724C725.093 177.322 725.16 176.89 725.136 176.459C725.157 176.027 725.089 175.597 724.939 175.196C724.788 174.795 724.558 174.433 724.264 174.136C723.378 173.484 722.304 173.188 721.232 173.299H715.016V179.665L721.232 179.595Z" fill="#354C62"></path><path d="M757.481 182.918C756.171 182.93 754.873 182.655 753.676 182.111C752.505 181.606 751.46 180.839 750.618 179.867C749.714 178.759 749.02 177.488 748.572 176.12C748.048 174.508 747.795 172.816 747.824 171.117V170.354C747.796 168.234 747.965 166.115 748.33 164.028C748.594 162.351 749.177 160.742 750.046 159.294C750.838 158.003 751.944 156.944 753.258 156.22C754.814 155.438 756.517 155.009 758.251 154.964L762.519 154.739C763.588 154.724 764.641 154.463 765.598 153.977V157.342C764.898 157.641 764.155 157.823 763.399 157.88C762.299 158.015 760.803 158.105 758.889 158.172C757.781 158.174 756.677 158.333 755.611 158.643C754.719 158.903 753.898 159.371 753.214 160.012C752.52 160.702 751.993 161.547 751.674 162.48C751.263 163.681 751.019 164.934 750.948 166.204C751.552 164.835 752.55 163.685 753.808 162.906C755.132 162.082 756.656 161.654 758.207 161.672C759.444 161.651 760.671 161.888 761.815 162.367C762.876 162.799 763.83 163.466 764.608 164.319C765.434 165.205 766.064 166.261 766.456 167.415C766.914 168.741 767.137 170.139 767.116 171.544V172.329C767.154 173.86 766.9 175.384 766.368 176.816C765.949 177.989 765.314 179.07 764.498 180.002C763.657 180.974 762.612 181.741 761.441 182.245C760.178 182.737 758.832 182.966 757.481 182.918ZM757.481 179.755C758.305 179.772 759.123 179.611 759.881 179.283C760.64 178.954 761.321 178.465 761.881 177.848C763.147 176.284 763.777 174.285 763.641 172.261V171.476C763.656 170.535 763.5 169.599 763.179 168.717C762.884 167.935 762.443 167.219 761.881 166.608C761.347 166.006 760.685 165.538 759.945 165.239C759.147 164.917 758.295 164.757 757.437 164.768C756.587 164.76 755.743 164.92 754.952 165.239C754.206 165.538 753.536 166.006 752.994 166.608C752.431 167.214 751.997 167.932 751.718 168.717C751.412 169.602 751.27 170.538 751.3 171.476V172.261C751.284 173.329 751.447 174.392 751.784 175.402C752.092 176.228 752.547 176.989 753.126 177.646C753.662 178.283 754.331 178.789 755.084 179.127C755.831 179.506 756.648 179.72 757.481 179.755Z" fill="#354C62"></path><path d="M776.869 192.546C776.497 192.582 776.122 192.582 775.749 192.546V189.137C776.117 189.233 776.492 189.282 776.869 189.282C777.203 189.292 777.535 189.218 777.842 189.065C778.159 188.871 778.429 188.588 778.624 188.243C778.93 187.716 779.192 187.158 779.406 186.575C779.702 185.849 780.04 184.906 780.399 183.746L771.944 161.213H775.601L781.942 179.491L787.734 161.213H791.243L783.802 183.746C783.274 185.342 782.788 186.695 782.323 187.832C781.921 188.823 781.417 189.757 780.822 190.612C780.341 191.282 779.734 191.819 779.047 192.184C778.348 192.462 777.609 192.585 776.869 192.546Z" fill="#354C62"></path><path d="M793.655 179.446H796.439C796.834 178.877 797.123 178.249 797.293 177.588C797.585 176.655 797.814 175.705 797.977 174.744C798.203 173.522 798.358 172.29 798.441 171.052C798.441 169.722 798.587 168.346 798.587 166.947V161.213H814.58V179.561H817.779V187.748H814.092V182.703H797.244V187.748H793.655V179.446ZM810.747 179.446V164.355H802.372V167.658C802.372 168.804 802.372 169.951 802.372 171.029C802.372 172.107 802.152 173.322 801.981 174.217C801.81 175.111 801.615 176.189 801.371 177.084C801.153 177.869 800.867 178.636 800.516 179.377L810.747 179.446Z" fill="#354C62"></path><path d="M825.732 192.546C825.313 192.582 824.891 192.582 824.472 192.546V189.137C824.885 189.233 825.308 189.282 825.732 189.282C826.108 189.292 826.481 189.218 826.826 189.065C827.183 188.871 827.486 188.588 827.706 188.243C828.05 187.712 828.352 187.154 828.609 186.575C828.919 185.849 829.299 184.906 829.703 183.746L820.191 161.213H824.305L831.439 179.491L837.955 161.213H841.902L833.532 183.746C832.937 185.342 832.39 186.695 831.867 187.832C831.424 188.828 830.856 189.762 830.179 190.612C829.637 191.282 828.955 191.819 828.181 192.184C827.395 192.462 826.564 192.585 825.732 192.546Z" fill="#354C62"></path><path d="M876.931 182.588H849.139V161.213H852.901V179.561H861.129V161.213H864.892V179.561H873.12V161.213H876.882V179.561H880.499V187.748H876.931V182.588Z" fill="#354C62"></path><path d="M895.377 182.924C894.084 182.925 892.8 182.705 891.58 182.273C890.382 181.876 889.289 181.208 888.387 180.32C887.417 179.384 886.656 178.251 886.154 176.998C885.57 175.489 885.289 173.879 885.328 172.261V171.475C885.302 169.942 885.567 168.419 886.109 166.986C886.593 165.794 887.307 164.711 888.208 163.798C889.079 162.947 890.123 162.296 891.268 161.89C892.45 161.466 893.697 161.253 894.952 161.261C896.248 161.124 897.557 161.279 898.786 161.716C900.014 162.152 901.13 162.858 902.052 163.783C902.974 164.708 903.679 165.828 904.116 167.062C904.553 168.295 904.71 169.611 904.577 170.914V173.159H888.789C888.762 174.228 888.959 175.292 889.37 176.279C889.731 177.064 890.256 177.761 890.91 178.322C891.519 178.853 892.235 179.244 893.01 179.467C893.732 179.699 894.484 179.82 895.243 179.826C896.504 179.896 897.761 179.625 898.882 179.04C899.723 178.517 900.367 177.727 900.714 176.795H904.086C903.903 177.748 903.523 178.651 902.969 179.444C902.44 180.2 901.773 180.848 901.004 181.352C900.193 181.88 899.303 182.274 898.369 182.52C897.393 182.783 896.387 182.919 895.377 182.924ZM895.198 164.359C894.397 164.356 893.6 164.47 892.831 164.696C892.093 164.909 891.408 165.276 890.821 165.773C890.215 166.27 889.72 166.889 889.37 167.592C888.993 168.422 888.809 169.328 888.834 170.241H901.361C901.357 169.302 901.175 168.372 900.825 167.502C900.528 166.804 900.078 166.182 899.508 165.684C898.931 165.225 898.271 164.882 897.565 164.673C896.793 164.464 895.997 164.358 895.198 164.359Z" fill="#354C62"></path><path d="M920.69 182.923C919.236 182.926 917.791 182.705 916.419 182.272C915.085 181.874 913.872 181.205 912.872 180.319C911.788 179.382 910.936 178.25 910.374 176.997C909.732 175.485 909.418 173.878 909.449 172.26V171.475C909.421 169.942 909.717 168.418 910.324 166.985C910.901 165.779 911.752 164.693 912.822 163.798C913.791 162.942 914.96 162.291 916.244 161.89C917.558 161.465 918.944 161.253 920.34 161.261C921.79 161.124 923.255 161.279 924.628 161.716C926.002 162.152 927.251 162.858 928.282 163.783C929.314 164.708 930.103 165.828 930.591 167.061C931.08 168.295 931.256 169.611 931.107 170.914V173.158H913.446C913.415 174.228 913.637 175.291 914.096 176.278C914.499 177.063 915.087 177.76 915.819 178.321C916.499 178.852 917.301 179.243 918.167 179.466C919.016 179.707 919.9 179.828 920.79 179.825C922.193 179.894 923.591 179.622 924.837 179.039C925.777 178.516 926.498 177.726 926.885 176.795H930.657C930.453 177.747 930.028 178.65 929.408 179.443C928.817 180.199 928.071 180.847 927.21 181.351C926.304 181.881 925.309 182.275 924.262 182.519C923.098 182.802 921.896 182.938 920.69 182.923ZM920.465 164.359C919.569 164.357 918.678 164.471 917.818 164.696C916.992 164.909 916.226 165.276 915.569 165.773C914.892 166.264 914.346 166.885 913.971 167.591C913.529 168.416 913.315 169.325 913.346 170.24H927.36C927.367 169.3 927.163 168.369 926.76 167.502C926.437 166.799 925.932 166.175 925.286 165.683C924.647 165.216 923.907 164.872 923.113 164.673C922.25 164.464 921.36 164.358 920.465 164.359Z" fill="#354C62"></path><path d="M950.457 153.978H960.68C962.408 153.954 964.13 154.176 965.792 154.639C967.113 155.012 968.342 155.647 969.401 156.503C970.326 157.259 971.049 158.222 971.509 159.31C972.388 161.591 972.388 164.106 971.509 166.387C971.05 167.482 970.327 168.453 969.401 169.218C968.334 170.057 967.108 170.683 965.792 171.058C964.132 171.531 962.409 171.754 960.68 171.719H954.478V182.924H950.457V153.978ZM960.486 168.416C961.695 168.448 962.902 168.313 964.072 168.015C964.946 167.815 965.77 167.446 966.494 166.93C967.085 166.475 967.537 165.871 967.802 165.184C968.089 164.43 968.229 163.629 968.214 162.825C968.232 162.02 968.092 161.22 967.802 160.466C967.543 159.776 967.09 159.171 966.494 158.72C965.772 158.195 964.948 157.818 964.072 157.611C962.9 157.325 961.694 157.19 960.486 157.21H954.478V168.251L960.486 168.416Z" fill="#354C62"></path><path d="M986.641 182.924C985.392 182.927 984.153 182.707 982.975 182.273C981.841 181.842 980.805 181.17 979.931 180.3C979.005 179.351 978.275 178.214 977.787 176.958C977.238 175.463 976.969 173.871 976.994 172.27V171.485C976.969 169.949 977.239 168.424 977.787 166.999C978.282 165.786 979.012 164.694 979.931 163.792C980.805 162.933 981.842 162.276 982.975 161.863C985.341 160.996 987.919 160.996 990.285 161.863C991.423 162.278 992.467 162.935 993.351 163.792C994.271 164.693 995.001 165.786 995.494 166.999C996.053 168.421 996.324 169.948 996.288 171.485V172.27C996.323 173.872 996.054 175.466 995.494 176.958C995.007 178.214 994.278 179.352 993.351 180.3C992.469 181.17 991.425 181.842 990.285 182.273C989.114 182.705 987.882 182.925 986.641 182.924ZM986.641 179.761C987.373 179.748 988.098 179.604 988.784 179.335C989.536 179.069 990.219 178.624 990.778 178.034C991.394 177.398 991.876 176.634 992.193 175.791C992.587 174.68 992.776 173.5 992.75 172.315V171.485C992.775 170.373 992.586 169.267 992.193 168.233C991.87 167.393 991.389 166.63 990.778 165.99C990.211 165.422 989.53 164.993 988.784 164.734C987.321 164.195 985.725 164.195 984.261 164.734C983.516 164.993 982.835 165.422 982.267 165.99C981.656 166.63 981.175 167.393 980.853 168.233C980.43 169.26 980.212 170.367 980.209 171.485V172.27C980.184 173.455 980.373 174.635 980.767 175.747C981.084 176.589 981.566 177.353 982.182 177.989C982.741 178.579 983.424 179.024 984.175 179.29C984.96 179.615 985.797 179.775 986.641 179.761Z" fill="#354C62"></path><path d="M1013.61 182.922C1012.25 182.931 1010.9 182.711 1009.62 182.272C1008.41 181.848 1007.32 181.174 1006.42 180.298C1005.47 179.335 1004.75 178.197 1004.3 176.957C1003.75 175.45 1003.49 173.863 1003.53 172.27V171.485C1003.49 169.953 1003.77 168.428 1004.37 167C1004.86 165.797 1005.62 164.705 1006.59 163.793C1007.5 162.95 1008.59 162.294 1009.79 161.865C1011.01 161.425 1012.3 161.204 1013.61 161.214C1014.81 161.195 1016 161.362 1017.14 161.708C1018.13 162.031 1019.06 162.517 1019.87 163.143C1020.64 163.734 1021.29 164.457 1021.78 165.273C1022.26 166.094 1022.62 166.978 1022.83 167.897H1019.05C1018.84 167.414 1018.59 166.948 1018.29 166.507C1017.99 166.082 1017.62 165.703 1017.19 165.386C1016.72 165.061 1016.21 164.804 1015.66 164.623C1015 164.435 1014.3 164.344 1013.61 164.354C1012.79 164.347 1011.98 164.492 1011.22 164.78C1010.46 165.051 1009.77 165.481 1009.22 166.036C1008.58 166.68 1008.1 167.445 1007.81 168.278C1007.43 169.324 1007.25 170.425 1007.28 171.53V172.315C1007.25 173.486 1007.43 174.653 1007.81 175.769C1008.11 176.599 1008.59 177.362 1009.22 178.011C1009.76 178.594 1010.45 179.041 1011.22 179.312C1011.98 179.6 1012.79 179.745 1013.61 179.738C1014.84 179.772 1016.05 179.443 1017.07 178.796C1018.01 178.154 1018.71 177.241 1019.05 176.195H1022.83C1022.38 178.139 1021.22 179.875 1019.55 181.106C1017.85 182.321 1015.75 182.96 1013.61 182.922Z" fill="#354C62"></path><path d="M1038.87 182.922C1037.68 182.927 1036.51 182.707 1035.39 182.271C1034.34 181.842 1033.39 181.168 1032.61 180.298C1031.78 179.335 1031.15 178.197 1030.75 176.957C1030.27 175.451 1030.04 173.864 1030.07 172.27V171.485C1030.04 169.951 1030.29 168.426 1030.82 167C1031.25 165.797 1031.91 164.705 1032.76 163.793C1033.55 162.941 1034.5 162.283 1035.55 161.865C1036.61 161.425 1037.74 161.204 1038.87 161.214C1039.93 161.195 1040.98 161.362 1041.98 161.708C1042.85 162.031 1043.65 162.517 1044.36 163.143C1045.03 163.735 1045.59 164.458 1046.01 165.273C1046.45 166.089 1046.77 166.975 1046.95 167.897H1043.65C1043.47 167.409 1043.24 166.943 1042.96 166.507C1042.71 166.079 1042.39 165.7 1042.02 165.385C1041.62 165.061 1041.17 164.804 1040.69 164.623C1040.1 164.433 1039.49 164.343 1038.87 164.354C1038.16 164.344 1037.45 164.489 1036.79 164.78C1036.12 165.051 1035.52 165.481 1035.03 166.036C1034.47 166.674 1034.05 167.441 1033.8 168.278C1033.47 169.324 1033.31 170.425 1033.34 171.53V172.315C1033.32 173.485 1033.47 174.653 1033.8 175.768C1034.06 176.603 1034.48 177.368 1035.03 178.011C1035.51 178.593 1036.11 179.04 1036.79 179.311C1037.45 179.603 1038.16 179.748 1038.87 179.737C1039.95 179.78 1041.01 179.45 1041.9 178.796C1042.73 178.154 1043.34 177.242 1043.65 176.194H1046.95C1046.56 178.138 1045.55 179.875 1044.09 181.105C1042.59 182.325 1040.75 182.965 1038.87 182.922Z" fill="#354C62"></path><path d="M1054.19 161.213H1057.94V177.519L1069.7 161.213H1073.49V182.924H1069.7V166.617L1057.94 182.924H1054.19V161.213Z" fill="#354C62"></path><path d="M1083.13 161.213H1086.42V177.519L1096.71 161.213H1100.02V182.924H1096.71V166.617L1086.42 182.924H1083.13V161.213Z" fill="#354C62"></path><path d="M337.726 84.0182L282.243 31.0566H337.726V84.0182Z" fill="#2097F3"></path><path d="M344.963 202.223H0V23.7109H344.963V202.223ZM9.07797 193.185H335.885V32.7495H9.07797V193.185Z" fill="#354C62"></path><path d="M264.584 11.0585L255.707 2H366.674V112.967L357.796 106.173V11.0585H264.584Z" fill="#2097F3" stroke="#2097F3" stroke-width="2.41233" stroke-miterlimit="10"></path><path d="M405.271 26.125H400.446V202.225H405.271V26.125Z" fill="#354C62"></path></svg> 