<svg id="Layer_1" data-name="Layer 1" xmlns="http://www.w3.org/2000/svg" viewBox="0 0 1000 112.5"><defs><style>.cls-1{fill:#fff}</style></defs><path class="cls-1" d="M139.12 63.89c0-20.71 16-36.75 45.59-36.75 28 0 42.24 13.09 45.59 29.14h-10.46c-2.64-10.46-12.9-20.21-35.13-20.21-22.85 0-35.13 12.29-35.13 27.82s12.28 27.82 35.13 27.82c22.23 0 32.49-9.75 35.13-20.2h10.46c-3.15 16.55-17.16 29.14-45.59 29.14-29.55 0-45.59-16.05-45.59-36.76ZM243.49 99.43V48.15h9V80A61.26 61.26 0 0 1 251 94.35h1.32l41-46.2h14.82v51.28h-9V67.55a60.76 60.76 0 0 1 1.53-14.32h-1.32l-41 46.2ZM379.24 48.15h9.34v51.28h-9.34V77.19h-45.48v22.24h-9.35V48.15h9.35v21.22h45.48ZM402.29 75.26C402.29 60.64 413 50 433.66 50c18.08 0 26.6 7.62 28.64 16.15h1.11V64.4c0-18.28-11.17-29.4-33.61-29.4-9.95 0-19.29 1.53-26.5 4.78v-7.87c6.81-3.25 15.94-4.77 26.71-4.77 27 0 41.73 14.72 41.73 39.8a40 40 0 0 1-2.95 16C464 94.25 453 100.65 435.9 100.65c-22.9 0-33.61-10.65-33.61-25.39Zm59-.2c0-10-7.92-17.77-24.88-17.77s-24.77 7.92-24.77 17.77 7.92 17.77 24.77 17.77 24.87-7.92 24.87-17.77ZM485.44 99.43V48.15h9V80A61.26 61.26 0 0 1 493 94.35h1.32l41-46.2h14.82v51.28h-9V67.55a60.76 60.76 0 0 1 1.53-14.32h-1.32l-41 46.2ZM625.66 99.43h-14.42L575.7 73.54v25.89h-9.34V48.15h9.34v24.07l34.73-24.07h14.21l-36.45 24.68ZM630.74 85.21c0-8.73 6.59-15.33 24-15.33 14.41 0 22.23 3.56 29.14 7.62v-5.18c0-10.36-7.21-17.57-22.75-17.57-14.92 0-21.22 6.4-22.54 12.19h-9.34c1.32-10.46 10.66-20 32-20 21.82 0 32 10.15 32 25.68v15.23c0 3.46 1.52 5 4.47 5a12.61 12.61 0 0 0 3.35-.51v7.51a16.6 16.6 0 0 1-5.18.82c-6.8 0-10.66-3.86-10.66-9.55v-.71h-1.32v.1c0 4.67-10.77 10.16-29.14 10.16-17.44-.02-24.03-6.62-24.03-15.46Zm53.1 1.32v-3.65a53.56 53.56 0 0 0-26-6.2c-14.11 0-17.76 3.66-17.76 8.33s3.65 8.33 17.76 8.33c12.39 0 20.41-3.34 26-6.81ZM725.57 99.43V56h-25.08v-7.85H760V56h-25.09v43.43ZM788.33 67.88V49h9.44c4.14 0 6.6 1.59 6.6 4.83a4.23 4.23 0 0 1-.73 2.53 3.39 3.39 0 0 1-1.48 1.29l-.71.23V58a7.18 7.18 0 0 1 1.44.45 5.48 5.48 0 0 1 1.27.76 4.81 4.81 0 0 1 1.42 3.47q0 5.19-7.54 5.18ZM790 50.6v6.75h8.17c3.07 0 4.6-1.13 4.6-3.37s-1.65-3.38-5-3.38Zm0 8.33v7.38h8c3.89 0 5.85-1.23 5.85-3.7s-1.9-3.68-5.7-3.68ZM831 59.64h-18.4c0 .17.06.42.12.74a9.1 9.1 0 0 0 .63 1.71 8.09 8.09 0 0 0 1.38 2.15 7.58 7.58 0 0 0 2.53 1.76 9.62 9.62 0 0 0 4 .76 9.3 9.3 0 0 0 4.93-1.21 7 7 0 0 0 2-1.82l.15-.36h1.94a5.63 5.63 0 0 1-.25.52 9.31 9.31 0 0 1-.9 1.2 8 8 0 0 1-1.61 1.52 9 9 0 0 1-2.57 1.17 11.86 11.86 0 0 1-3.66.54 10.34 10.34 0 0 1-7.47-2.75 9.34 9.34 0 0 1-2.87-7.07 9.43 9.43 0 0 1 2.86-7.08 11 11 0 0 1 14.5 0 9.45 9.45 0 0 1 2.83 7.08Zm-16.09-7.14a7.52 7.52 0 0 0-2.35 5.56h16.83a7.5 7.5 0 0 0-2.39-5.52 9.07 9.07 0 0 0-12.12 0ZM852.87 67.88v-9.07h-14v9.07h-1.69V49h1.69v8.21h14V49h1.69v18.88ZM876.77 67.88h-1.68v-6.44h-5.55q-8.31 0-8.32-6.83V49h1.69v5.58c0 3.51 2.2 5.26 6.63 5.26h5.55V49h1.68ZM882.23 49l8.34 17.17h.11L898.89 49h1.77l-10.09 21.09a20.87 20.87 0 0 1-2.78 4.58 4.28 4.28 0 0 1-3.36 1.46 4.82 4.82 0 0 1-1.84-.31l-.19-.07v-1.58a5 5 0 0 0 2 .39 3 3 0 0 0 2.32-1.08 14.42 14.42 0 0 0 2-3.39l.94-2L880.5 49ZM921.74 51.37a9.42 9.42 0 0 1 2.84 7.08 9.35 9.35 0 0 1-2.84 7.07 10.88 10.88 0 0 1-12.81 1.21 9 9 0 0 1-2.42-2.3l-.26-.48h-.18v11.8h-1.69V49h1.69v4h.18l.24-.46a8.12 8.12 0 0 1 .89-1 10.21 10.21 0 0 1 1.55-1.32 11 11 0 0 1 12.81 1.23Zm1.15 7.08a8 8 0 0 0-2.32-5.89 8.11 8.11 0 0 0-6.08-2.36 8.23 8.23 0 0 0-6.06 2.34 8.59 8.59 0 0 0 0 11.83 9 9 0 0 0 12.16 0 8.08 8.08 0 0 0 2.3-5.92ZM946.4 67.88v-9.07h-14v9.07h-1.69V49h1.69v8.21h14V49h1.68v18.88ZM955.13 49h1.69v6.48h4.79c5.39 0 8.1 2.07 8.1 6.2s-2.71 6.17-8.1 6.17h-6.48ZM968 61.71a4 4 0 0 0-1.59-3.51 8.39 8.39 0 0 0-4.82-1.12h-4.79v9.23h4.79a8.4 8.4 0 0 0 4.82-1.11 4 4 0 0 0 1.59-3.49Zm5.85 6.17V49h1.69v18.88ZM998.29 67.88V50.72h-.07l-13.08 17.16h-2.52V49h1.69v17.2h.08L997.47 49h2.53v18.88Zm-2.15-25.53q0 3.72-4.83 3.72t-4.83-3.72v-.07h1.57v.07c0 1.4 1.11 2.36 3.26 2.36s3.26-1 3.26-2.36v-.07h1.57ZM802.83 100 790 90.4v9.6h-1.69V81.18H790v9.15l12-9.15h2.4l-12 9.19 12.83 9.63ZM805.81 100.22v-1.53a4.15 4.15 0 0 0 .94.17 2.44 2.44 0 0 0 2.34-1.48 16.65 16.65 0 0 0 1.21-4.54l1.8-11.66h13.12V100h-1.68V82.75h-10L812 92.84a16.42 16.42 0 0 1-1.71 5.87 3.65 3.65 0 0 1-3.28 1.71ZM830.68 81.18 839 98.34h.11l8.21-17.16h1.77L839 102.24a21.12 21.12 0 0 1-2.78 4.58 4.28 4.28 0 0 1-3.36 1.46A4.82 4.82 0 0 1 831 108l-.19-.07v-1.58a5 5 0 0 0 2 .39 3 3 0 0 0 2.32-1.08 14.42 14.42 0 0 0 2-3.39l.94-2-9.19-19ZM855.14 80.51a12.83 12.83 0 0 0-1.86 7h.11a6.71 6.71 0 0 1 2.07-3.09 8 8 0 0 1 2.71-1.65A10.45 10.45 0 0 1 862 82a9.4 9.4 0 0 1 7 2.61 8.93 8.93 0 0 1 2.59 6.62 8.84 8.84 0 0 1-2.65 6.62 9.77 9.77 0 0 1-7.06 2.57 9.19 9.19 0 0 1-7.38-3.32 12.52 12.52 0 0 1-2.79-8.35v-1.91a12.33 12.33 0 0 1 2.69-8 9.29 9.29 0 0 1 7.6-3.32c3.8 0 5.7-1 5.68-3h1.71c0 2.7-2.38 4.56-7.2 4.56-3.29.01-5.77 1.34-7.05 3.43Zm12.5 16.18a7.27 7.27 0 0 0 2.21-5.46 7.35 7.35 0 0 0-2.19-5.47 8 8 0 0 0-5.87-2.15 7.47 7.47 0 0 0-5.52 2.21 7.65 7.65 0 0 0 0 10.84 7.5 7.5 0 0 0 5.52 2.2 8 8 0 0 0 5.85-2.17ZM111.46 45.47a56.25 56.25 0 0 0-96-27.92c31.9 9.26 63.54 17.6 96 27.92ZM82 103.2c-5.59 2.26-12.15 2.75-17.76.2a15.78 15.78 0 0 1-6.06-5.66q22.6-5.34 45.2-10.74 1.34-2.05 2.5-4.23C93.71 85.22 81.64 88 69.45 90.49c-4.89 1.18-10.06 2.11-15 .74-4.65-1-8.27-4.51-10.46-8.57 21.93-2.58 43.44-5.93 65.53-8.21.31-.9.6-1.81.86-2.74-16.89 1.35-39.38 4.21-54.52 5.74-8.08.84-16.53.69-22.85-4.7-2.74-2.63-5.65-5.7-6.68-9.34 21.26 1 43.89.21 65.16 1.15 5.39.28 13.84.41 20.32.47q.21-1.35.36-2.73c-24.61-2-84-2.27-90.08-4.89C7.61 51.22 7.62 46.28 6.29 40.2c29.49 4.85 93.92 13.45 106.19 15.08 0-.77 0-1.53-.08-2.29-10.71-1.71-66-10.6-93.05-15.93C13.55 36 9.44 33.54 6.52 30a56.25 56.25 0 0 0 86.83 68.52c-3.89 1.62-7.71 3.22-11.35 4.68Z"/></svg>