<svg width="97" height="44" xmlns="http://www.w3.org/2000/svg" xmlns:xlink="http://www.w3.org/1999/xlink" overflow="hidden"><defs><clipPath id="clip0"><rect x="307" y="216" width="97" height="44"/></clipPath></defs><g clip-path="url(#clip0)" transform="translate(-307 -216)"><path d="M20.795 20.6353C21.8273 21.6008 23.2892 22.0836 25.1805 22.0836 25.8815 22.0863 26.5801 22.0014 27.26 21.831 27.8868 21.6733 28.4787 21.4 29.0053 21.0252 29.2576 21.1834 29.5179 21.3284 29.7851 21.4597 30.7852 21.897 31.8689 22.1099 32.9601 22.0836 35.3218 22.0836 36.9309 21.3409 37.7875 19.8555L37.7875 21.8348 42.0987 21.8348 42.0987 12.7815C42.0987 10.4198 41.4389 8.65343 40.1195 7.48249 38.8161 6.31277 36.4284 6.33134 34.0221 6.31277L34.0221 9.85535C36.2501 9.85535 37.4867 9.85535 37.4867 12.5104L33.8253 12.5104C31.5057 12.5104 29.7888 12.9338 28.6748 13.7804 27.5775 14.5945 26.9534 15.8983 27.0075 17.2636 27.0136 17.568 27.0472 17.8712 27.1078 18.1696 26.7042 18.3419 26.2691 18.4279 25.8304 18.4221 25.2866 18.4562 24.7542 18.2562 24.3673 17.8726 23.9964 17.4503 23.8046 16.9002 23.8326 16.3389L23.8326 9.85906 32.5219 9.85906 32.5219 6.31277 23.8548 6.31277 23.8326 2.44713 19.228 2.44713 19.228 16.3835C19.228 18.2526 19.7503 19.6698 20.795 20.6353ZM34.3489 15.2026 37.5053 15.2026 37.5053 16.8254C37.2773 17.4989 36.8182 18.0699 36.2093 18.437 35.573 18.8074 34.8473 18.9962 34.1112 18.9829 33.4368 19.0199 32.7684 18.8375 32.2063 18.463 31.7533 18.15 31.486 17.6321 31.4933 17.0816 31.4933 15.829 32.439 15.2026 34.3303 15.2026Z" transform="matrix(1.0122 0 0 1 307.204 216)"/><path d="M72.5151 13.9364C72.5151 15.3326 72.1809 16.3872 71.5125 17.0928 70.8207 17.8109 69.8538 18.1976 68.8575 18.1548 66.7111 18.1548 65.6379 16.8947 65.6379 14.3745L65.6379 6.31277 61.0296 6.31277 61.0296 15.0392C61.0241 15.7879 61.0998 16.535 61.2561 17.2673 60.4318 17.7574 59.0281 18.4221 57.8695 18.4221 57.3259 18.4562 56.7934 18.2562 56.4064 17.8726 56.0437 17.4467 55.8587 16.8975 55.8903 16.3389L55.8903 9.85906 60.027 9.85906 60.027 6.31277 55.9163 6.31277 55.8903 2.44713 51.2857 2.44713 51.2857 6.31277 48.8868 6.31277C47.0673 6.33999 45.6551 6.83513 44.6498 7.79813 43.6446 8.76112 43.1274 10.2019 43.0976 12.1205L43.0976 21.8459 47.7023 21.8459 47.7023 12.1577C47.6655 11.5842 47.8519 11.0188 48.2221 10.5795 48.6054 10.1921 49.1375 9.98903 49.6815 10.0224 50.2456 10.0111 50.8018 10.1591 51.2857 10.4495L51.2857 16.3909C51.2857 18.26 51.8018 19.6773 52.8342 20.6428 53.8665 21.6082 55.3284 22.091 57.2197 22.091 60.3946 22.091 62.1733 20.8321 62.8566 20.3085L62.8566 20.3085C64.0772 21.4894 65.7308 22.0811 67.8177 22.0836 68.7572 22.0867 69.6881 21.9011 70.5545 21.5377 71.3881 21.1862 72.1334 20.6549 72.738 19.9818L72.738 21.8385 77.1086 21.8385 77.1086 6.31277 72.5151 6.31277Z" transform="matrix(1.0122 0 0 1 307.204 216)"/><path d="M94.3945 9.84792C93.7305 8.6456 92.7424 7.65364 91.5426 6.98489 90.3112 6.30029 88.9224 5.94952 87.5135 5.96742 85.3301 5.96742 83.6665 6.65563 82.5227 8.03207L82.5227 6.31277 78.1261 6.31277 78.1261 27.8133 82.7307 27.8133 82.7307 20.4237C83.8919 21.7011 85.486 22.341 87.5135 22.3435 88.9228 22.3601 90.3116 22.008 91.5426 21.3223 92.7424 20.6536 93.7305 19.6616 94.3945 18.4593 95.11 17.1356 95.4684 15.6485 95.4342 14.1443 95.465 12.6464 95.1067 11.1661 94.3945 9.84792ZM89.6265 17.349C88.0145 18.9437 85.4196 18.9437 83.8076 17.349 83.02 16.4729 82.6115 15.3207 82.6713 14.1443 82.6115 12.9679 83.02 11.8157 83.8076 10.9397 85.4196 9.34494 88.0145 9.34494 89.6265 10.9397 90.4141 11.8157 90.8225 12.9679 90.7628 14.1443 90.8225 15.3207 90.4141 16.4729 89.6265 17.349Z" transform="matrix(1.0122 0 0 1 307.204 216)"/><path d="M13.3088 17.4901C12.6404 17.9097 11.6006 18.1176 10.197 18.1176 8.91252 18.1137 7.6367 17.9069 6.41674 17.5049 5.24862 17.1463 4.1463 16.6008 3.15267 15.8896L1.48536 19.6104C2.62809 20.4324 3.91187 21.0378 5.27302 21.3966 6.86369 21.8561 8.51154 22.0874 10.1673 22.0836 11.8679 22.1297 13.5599 21.8277 15.1395 21.1961 16.3673 20.7099 17.4285 19.8795 18.1956 18.8046 18.8689 17.8208 19.2252 16.6547 19.2168 15.4626 19.2168 14.0416 18.8455 12.914 18.1028 12.0797 17.3789 11.2569 16.4613 10.6276 15.4329 10.249 14.1253 9.78331 12.7911 9.39645 11.4373 9.09039 10.2408 8.85886 9.07115 8.50549 7.94666 8.03578 7.2589 7.7891 6.80089 7.13625 6.80294 6.4056 6.79889 5.68093 7.1771 5.00777 7.79813 4.63432 8.45911 4.18871 9.48029 3.9659 10.8617 3.9659 12.9472 3.99684 14.9882 4.57431 16.7808 5.64064L18.3033 1.89012C17.2449 1.24665 16.0921 0.773017 14.887 0.486455 13.5824 0.162547 12.2431-0.000814247 10.8988 6.72859e-08 9.20324-0.0485426 7.5158 0.25229 5.94143 0.883788 4.71961 1.37166 3.6657 2.2037 2.90759 3.27893 2.24087 4.27616 1.89018 5.45115 1.90126 6.65069 1.90126 8.07169 2.2726 9.20922 3.01528 10.0633 3.73363 10.8984 4.65232 11.5373 5.68521 11.92 6.99217 12.3874 8.32654 12.7743 9.68082 13.0786 10.7391 13.3237 11.5746 13.5502 12.1948 13.7507 12.7573 13.9198 13.2818 14.196 13.7396 14.5639 14.1231 14.8711 14.3426 15.3388 14.3337 15.8302 14.3277 16.5311 13.9328 17.1707 13.3088 17.4901Z" transform="matrix(1.0122 0 0 1 307.204 216)"/><path d="M28.1995 28.2218C26.3082 28.2218 24.8463 28.7169 23.814 29.7071 22.7817 30.6974 22.2704 32.1295 22.2804 34.0035L22.2804 43.7401 26.885 43.7401 26.885 34.0667C26.8482 33.495 27.0331 32.9312 27.4011 32.4922 27.7824 32.1086 28.3093 31.906 28.8494 31.9352 29.5189 31.9173 30.1742 32.1297 30.7061 32.5368L31.9352 29.2393C31.4349 28.8751 30.8667 28.615 30.2642 28.4743 29.5894 28.3033 28.8956 28.2184 28.1995 28.2218Z" transform="matrix(1.0122 0 0 1 307.204 216)"/><path d="M50.2274 28.2181 47.2307 35.1844 45.6822 38.7753 42.652 31.5007 41.2892 28.2181 31.95 28.2181 31.95 29.2393 31.95 43.7401 36.5546 43.7401 36.5546 28.2181 43.2016 43.7401 47.9585 43.7401 54.6537 28.2181 50.2274 28.2181Z" transform="matrix(1.0122 0 0 1 307.204 216)"/><path d="M64.8284 28.8494C62.1344 27.5142 58.9676 27.5308 56.2876 28.8939 55.0269 29.555 53.9742 30.5524 53.2463 31.7755 52.5014 33.0311 52.1164 34.4673 52.1323 35.9271 52.1063 37.3928 52.4925 38.8362 53.2463 40.0935 54.0165 41.3356 55.1257 42.3316 56.4436 42.964 57.9245 43.6777 59.5528 44.0327 61.1967 44 64.0709 44 66.2555 43.1545 67.7509 41.4638L65.3 38.8421C64.7876 39.3415 64.1804 39.7329 63.5139 39.9932 62.8098 40.2491 62.0649 40.375 61.3156 40.3646 60.2461 40.4014 59.1915 40.1028 58.3003 39.5105 57.5101 38.9724 56.9597 38.1481 56.7666 37.2119L68.7832 37.2119C68.8426 36.4544 68.8723 36.0459 68.8723 35.9865 68.905 34.4833 68.5318 32.999 67.7917 31.6901 67.0966 30.4788 66.068 29.4927 64.8284 28.8494ZM56.7109 34.5606C56.8249 33.6282 57.288 32.7737 58.0069 32.1691 58.7515 31.5746 59.6839 31.2652 60.636 31.2965 61.5811 31.2696 62.5042 31.5848 63.2354 32.184 63.9491 32.7871 64.4122 33.6344 64.5351 34.5606Z" transform="matrix(1.0122 0 0 1 307.204 216)"/><path d="M20.8321 27.973C19.8675 26.4083 18.4744 25.153 16.818 24.3561 14.9646 23.4709 12.93 23.0309 10.8765 23.0713L1.48536 23.0713 6.26078 27.0001 10.6314 27.0001C12.7035 27.0001 14.3585 27.5757 15.5963 28.7268 16.834 29.878 17.4529 31.4376 17.4529 33.4057 17.4529 35.3862 16.834 36.9458 15.5963 38.0846 14.3585 39.2235 12.7097 39.799 10.65 39.8113L6.26078 39.8113 1.48536 43.7401 10.8654 43.7401C12.9187 43.7787 14.9529 43.3386 16.8068 42.4552 18.4625 41.6572 19.8554 40.4021 20.821 38.8384 21.8051 37.2049 22.3107 35.3275 22.2804 33.4205 22.3203 31.5045 21.8183 29.6162 20.8321 27.973Z" transform="matrix(1.0122 0 0 1 307.204 216)"/><path d="M3.47574 36.7292 0 36.7292 1.8567 33.0492C2.42909 31.9092 3.59638 31.1905 4.87197 31.1925L8.34771 31.1925 6.49101 34.9059C5.91001 36.0335 4.74419 36.7385 3.47574 36.7292Z" transform="matrix(1.0122 0 0 1 307.204 216)"/></g></svg>