<svg width="125" height="58" viewBox="0 0 125 58" fill="none" xmlns="http://www.w3.org/2000/svg">
<path d="M25.6741 27.2013C27.0487 28.4721 28.9906 29.1095 31.4999 29.1135C32.4333 29.1158 33.3635 29.0041 34.2694 28.7807C35.0712 28.5958 35.8293 28.2588 36.5021 27.7883L36.4289 27.6007C36.8121 27.8692 37.2207 28.1002 37.6489 28.2905C38.9794 28.8647 40.4197 29.1455 41.8703 29.1135C45.0058 29.1135 47.1491 28.1392 48.3 26.1907V28.7989H54.0281V16.8532C54.0281 13.7367 53.1558 11.4069 51.3989 9.86378C49.642 8.32065 46.5187 8.35091 43.3039 8.33275V12.9984C44.4507 13.1195 46.0551 12.8835 46.6956 13.4463C47.1128 13.8355 47.4384 14.3111 47.6493 14.8393C47.8601 15.3674 47.9511 15.9352 47.9157 16.5022H43.0355C39.9487 16.5022 37.6672 17.059 36.191 18.1725C35.4715 18.7005 34.8931 19.3951 34.506 20.1956C34.119 20.9961 33.9352 21.8784 33.9705 22.7655C33.9713 23.1714 34.008 23.5764 34.0803 23.9758C33.5439 24.2001 32.9664 24.3113 32.3844 24.3026C32.0198 24.3284 31.6539 24.2758 31.3118 24.1484C30.9696 24.021 30.6592 23.8218 30.4018 23.5643C29.9091 22.9994 29.6613 22.2642 29.7125 21.5189V12.9984H41.2847V8.3267H29.7918L29.7613 3.23135H23.661V21.5976C23.6326 24.0666 24.3036 25.9345 25.6741 27.2013ZM43.6821 20.0424H47.8791V22.1846C47.5758 23.0718 46.9637 23.8227 46.1527 24.3026C45.3103 24.7928 44.3475 25.0421 43.371 25.0227C42.4755 25.0734 41.5875 24.8357 40.8394 24.345C40.5438 24.1356 40.305 23.857 40.1443 23.5339C39.9836 23.2108 39.9059 22.8533 39.9182 22.4932C39.9182 20.8593 41.1688 20.0424 43.6821 20.0424Z" fill="white"/>
<path d="M94.454 18.3782C94.454 20.2179 94.0087 21.6036 93.1181 22.5356C92.6608 23.0043 92.1084 23.3713 91.4973 23.6123C90.8863 23.8533 90.2307 23.9627 89.5738 23.9335C86.727 23.9335 85.3036 22.2733 85.3036 18.9531V8.3267H79.2034V19.8245C79.1965 20.8106 79.2967 21.7946 79.5023 22.7595C78.4042 23.407 76.5497 24.2784 75.0003 24.2784C74.6441 24.2997 74.2875 24.2466 73.9533 24.1225C73.6192 23.9985 73.315 23.8063 73.0604 23.5583C72.5706 22.9917 72.3232 22.2578 72.3711 21.5129V12.9984H77.8613V8.3267H72.3711L72.3345 3.23135H66.2342V8.30855H63.0499C60.6341 8.33679 58.7573 8.98228 57.4193 10.245C56.0813 11.5078 55.394 13.4079 55.3574 15.9455V28.7989H61.4577V16.0302C61.396 15.2693 61.6344 14.5144 62.1226 13.9243C62.3754 13.6732 62.6791 13.4781 63.0134 13.3519C63.3478 13.2257 63.7054 13.1712 64.0625 13.1921C64.8116 13.1757 65.5499 13.3709 66.1915 13.7549V21.5976C66.1915 24.0666 66.8788 25.9345 68.2534 27.2013C69.628 28.468 71.5699 29.1055 74.0791 29.1135C76.7734 29.2038 79.4174 28.3751 81.5703 26.7656C83.1868 28.3268 85.389 29.1075 88.1585 29.1075C89.4148 29.118 90.6601 28.8751 91.8187 28.3934C92.9279 27.9314 93.9197 27.2307 94.7224 26.342V28.7989H100.554V8.3267H94.454V18.3782Z" fill="white"/>
<path d="M123.484 12.9863C122.604 11.4018 121.294 10.0937 119.702 9.21021C118.065 8.3095 116.218 7.84851 114.346 7.87283C111.442 7.87283 109.232 8.78257 107.715 10.6021V8.33275H101.871V36.6658H107.971V26.8987C109.517 28.5891 111.636 29.4322 114.328 29.4282C116.201 29.4507 118.047 28.9876 119.684 28.0848C121.275 27.2013 122.586 25.8932 123.466 24.3087C124.411 22.5728 124.884 20.6228 124.839 18.6505C124.889 16.678 124.422 14.7264 123.484 12.9863V12.9863ZM117.152 22.8745C116.124 23.8852 114.735 24.4522 113.288 24.4522C111.84 24.4522 110.451 23.8852 109.423 22.8745C108.374 21.7164 107.83 20.1933 107.91 18.6384C107.83 17.0834 108.374 15.5601 109.423 14.4024C110.451 13.3917 111.84 12.8246 113.288 12.8246C114.735 12.8246 116.124 13.3917 117.152 14.4024C118.2 15.5607 118.742 17.0842 118.659 18.6384C118.741 20.1925 118.199 21.7154 117.152 22.8745V22.8745Z" fill="white"/>
<path d="M15.7609 23.0621C14.8703 23.6107 13.4916 23.8851 11.6249 23.8851C9.92117 23.8803 8.22885 23.6087 6.61051 23.0802C5.05809 22.6076 3.59328 21.8882 2.27322 20.9501L0.0283203 25.8578C1.55214 26.9381 3.26173 27.7338 5.07324 28.2058C7.18842 28.8135 9.38011 29.1192 11.5822 29.1135C13.8456 29.1744 16.0977 28.777 18.201 27.9456C19.8288 27.3121 21.2375 26.2257 22.2577 24.817C23.156 23.524 23.631 21.9878 23.6181 20.4176C23.7069 18.7989 23.1777 17.2064 22.1357 15.9576C21.1766 14.8698 19.9581 14.0376 18.5914 13.537C16.8545 12.9246 15.0822 12.4153 13.2842 12.012C11.6932 11.7054 10.1378 11.239 8.6419 10.6202C8.19709 10.4619 7.81244 10.1711 7.54055 9.78763C7.26866 9.40419 7.12281 8.94679 7.12293 8.47798C7.11454 8.0045 7.23188 7.53716 7.46317 7.1229C7.69445 6.70864 8.03154 6.36204 8.44059 6.1179C9.31903 5.51276 10.6733 5.23439 12.5156 5.23439C15.2847 5.27345 17.9946 6.03527 20.3727 7.44318L22.398 2.49912C20.9931 1.64826 19.4612 1.02329 17.8594 0.647366C16.1237 0.217577 14.3411 0.00212669 12.5522 0.00590897C10.3107 -0.0540953 8.08067 0.343437 6.00048 1.17384C4.364 1.80707 2.9512 2.90344 1.9377 4.32667C1.05065 5.63988 0.582975 7.18773 0.595645 8.76845C0.512588 10.3993 1.04059 12.003 2.07801 13.2708C3.03415 14.3619 4.25356 15.1947 5.62226 15.6913C7.35809 16.3089 9.1305 16.8203 10.9295 17.2224C12.3387 17.5431 13.4489 17.8275 14.2724 18.1059C15.0126 18.3273 15.7025 18.689 16.3038 19.1709C16.5544 19.3716 16.7556 19.6264 16.892 19.9158C17.0283 20.2052 17.0963 20.5217 17.0908 20.8412C17.0947 21.2965 16.9728 21.7443 16.7384 22.1358C16.5039 22.5273 16.1659 22.8476 15.7609 23.0621V23.0621Z" fill="white"/>
<path d="M35.538 37.1983C33.0247 37.1983 31.0828 37.8438 29.7123 39.1348C28.3418 40.4258 27.6545 42.3219 27.6504 44.8232V57.6584H33.7507V44.9079C33.7006 44.1535 33.9477 43.4094 34.44 42.8322C34.6921 42.5802 34.9956 42.3845 35.3302 42.2582C35.6647 42.1319 36.0226 42.078 36.3799 42.1C37.2607 42.0794 38.122 42.3593 38.82 42.8928L40.4731 38.5417C39.8312 38.0706 39.1045 37.7255 38.3319 37.5251C37.4184 37.2987 36.4796 37.1889 35.538 37.1983V37.1983Z" fill="white"/>
<path d="M64.8069 37.1862L60.8234 46.3784L58.7676 51.1107L54.7414 41.5251L52.9236 37.1862H46.6037L46.6098 37.1983H40.5156V38.5417V57.6584H46.6403V37.2588L55.4735 57.6584H61.7873L70.6936 37.1862H64.8069Z" fill="white"/>
<path d="M84.2057 38.0274C82.4378 37.1613 80.4908 36.7158 78.5191 36.7263C76.5474 36.7369 74.6054 37.203 72.847 38.0879C71.1836 38.9665 69.7952 40.281 68.833 41.8882C67.8486 43.5355 67.34 45.4197 67.3628 47.3345C67.3202 49.2747 67.8298 51.1875 68.833 52.8535C69.8627 54.4932 71.3446 55.8057 73.1032 56.6357C75.0711 57.574 77.2339 58.0404 79.417 57.9973C83.2357 57.9973 86.1394 56.8838 88.1281 54.6568L84.8706 51.2014C84.1894 51.8594 83.3826 52.3758 82.4976 52.7204C81.561 53.0549 80.5708 53.2169 79.5756 53.1984C78.1469 53.2565 76.7362 52.867 75.5433 52.085C74.4933 51.3776 73.7625 50.2923 73.5058 49.0592H89.4702C89.5495 48.0607 89.5861 47.5221 89.5861 47.4435C89.6304 45.4561 89.1353 43.4935 88.1525 41.7611C87.2248 40.1671 85.8548 38.871 84.2057 38.0274V38.0274ZM73.4204 45.5554C73.569 44.3261 74.1868 43.2 75.1468 42.4086C76.1338 41.623 77.3713 41.2131 78.6361 41.2528C79.8922 41.2178 81.1186 41.6348 82.0889 42.4268C83.0358 43.221 83.6511 44.3362 83.8152 45.5554H73.4204Z" fill="white"/>
<path d="M25.7468 36.8776C24.467 34.8141 22.6163 33.1589 20.4152 32.109C17.9419 30.9361 15.2255 30.3557 12.4848 30.4146H0.0341797L6.39066 35.5886H12.192C14.9453 35.5886 17.1373 36.3491 18.7681 37.87C20.3989 39.391 21.2123 41.4464 21.2082 44.0365C21.2082 46.6305 20.3948 48.686 18.7681 50.2029C17.1414 51.7198 14.9493 52.4783 12.192 52.4783H6.39066L0.0341797 57.6584H12.5092C15.2497 57.7143 17.9653 57.1341 20.4396 55.9639C22.6386 54.911 24.4884 53.2565 25.7712 51.1954C27.0712 49.0339 27.7308 46.5528 27.6745 44.0365C27.7235 41.5178 27.0553 39.0365 25.7468 36.8776V36.8776Z" fill="white"/>
<path d="M4.6179 48.4177H0L2.44011 43.5765C2.81097 42.8385 3.38191 42.2176 4.0888 41.7836C4.79569 41.3496 5.61055 41.1196 6.44188 41.1196H11.0659L8.62578 45.9608C8.25389 46.6994 7.68187 47.3205 6.97392 47.7545C6.26598 48.1884 5.45012 48.4181 4.6179 48.4177Z" fill="#00AAD7"/>
</svg>
